<svg width="13" height="8" viewBox="0 0 13 8" fill="none" xmlns="http://www.w3.org/2000/svg">
<path d="M0.295798 0.784202C0.20207 0.877165 0.127676 0.987766 0.0769072 1.10962C0.0261385 1.23148 0 1.36219 0 1.4942C0 1.62621 0.0261385 1.75692 0.0769072 1.87878C0.127676 2.00064 0.20207 2.11124 0.295798 2.2042L5.2958 7.2042C5.38876 7.29793 5.49936 7.37232 5.62122 7.42309C5.74308 7.47386 5.87379 7.5 6.0058 7.5C6.13781 7.5 6.26852 7.47386 6.39038 7.42309C6.51223 7.37232 6.62284 7.29793 6.7158 7.2042L11.7158 2.2042C11.8095 2.11124 11.8839 2.00064 11.9347 1.87878C11.9855 1.75692 12.0116 1.62621 12.0116 1.4942C12.0116 1.36219 11.9855 1.23148 11.9347 1.10962C11.8839 0.987766 11.8095 0.877165 11.7158 0.784202C11.6228 0.690473 11.5122 0.616079 11.3904 0.56531C11.2685 0.514542 11.1378 0.488403 11.0058 0.488403C10.8738 0.488403 10.7431 0.514542 10.6212 0.56531C10.4994 0.616079 10.3888 0.690473 10.2958 0.784202L6.0058 5.0842L1.7158 0.784202C1.62284 0.690473 1.51223 0.616079 1.39038 0.56531C1.26852 0.514542 1.13781 0.488403 1.0058 0.488403C0.873786 0.488403 0.743081 0.514542 0.621222 0.56531C0.499362 0.616079 0.388761 0.690473 0.295798 0.784202Z" fill="white"/>
</svg>
