<svg width="116" height="116" viewBox="0 0 116 116" fill="none" xmlns="http://www.w3.org/2000/svg">
<path d="M58.9668 81.9733C71.673 81.9733 81.9735 71.6729 81.9735 58.9667C81.9735 46.2604 71.673 35.96 58.9668 35.96C46.2606 35.96 35.9602 46.2604 35.9602 58.9667C35.9602 71.6729 46.2606 81.9733 58.9668 81.9733Z" fill="url(#paint0_linear_295_31)"/>
<path d="M58.967 24.4568C62.5974 24.4568 65.5404 21.5138 65.5404 17.8834C65.5404 14.2531 62.5974 11.3101 58.967 11.3101C55.3367 11.3101 52.3937 14.2531 52.3937 17.8834C52.3937 21.5138 55.3367 24.4568 58.967 24.4568Z" fill="url(#paint1_linear_295_31)"/>
<path d="M29.9178 36.4891C33.5482 36.4891 36.4911 33.5461 36.4911 29.9158C36.4911 26.2854 33.5482 23.3425 29.9178 23.3425C26.2875 23.3425 23.3445 26.2854 23.3445 29.9158C23.3445 33.5461 26.2875 36.4891 29.9178 36.4891Z" fill="url(#paint2_linear_295_31)"/>
<path d="M17.8847 65.5402C21.515 65.5402 24.458 62.5972 24.458 58.9669C24.458 55.3365 21.515 52.3935 17.8847 52.3935C14.2543 52.3935 11.3114 55.3365 11.3114 58.9669C11.3114 62.5972 14.2543 65.5402 17.8847 65.5402Z" fill="url(#paint3_linear_295_31)"/>
<path d="M29.9178 94.5909C33.5482 94.5909 36.4911 91.6479 36.4911 88.0176C36.4911 84.3872 33.5482 81.4443 29.9178 81.4443C26.2875 81.4443 23.3445 84.3872 23.3445 88.0176C23.3445 91.6479 26.2875 94.5909 29.9178 94.5909Z" fill="url(#paint4_linear_295_31)"/>
<path d="M58.967 106.623C62.5974 106.623 65.5404 103.68 65.5404 100.05C65.5404 96.4196 62.5974 93.4766 58.967 93.4766C55.3367 93.4766 52.3937 96.4196 52.3937 100.05C52.3937 103.68 55.3367 106.623 58.967 106.623Z" fill="url(#paint5_linear_295_31)"/>
<path d="M88.0192 94.5909C91.6496 94.5909 94.5926 91.6479 94.5926 88.0176C94.5926 84.3872 91.6496 81.4443 88.0192 81.4443C84.3889 81.4443 81.4459 84.3872 81.4459 88.0176C81.4459 91.6479 84.3889 94.5909 88.0192 94.5909Z" fill="url(#paint6_linear_295_31)"/>
<path d="M100.052 65.5402C103.683 65.5402 106.626 62.5972 106.626 58.9669C106.626 55.3365 103.683 52.3935 100.052 52.3935C96.422 52.3935 93.479 55.3365 93.479 58.9669C93.479 62.5972 96.422 65.5402 100.052 65.5402Z" fill="url(#paint7_linear_295_31)"/>
<path d="M88.0192 36.4891C91.6496 36.4891 94.5926 33.5461 94.5926 29.9158C94.5926 26.2854 91.6496 23.3425 88.0192 23.3425C84.3889 23.3425 81.4459 26.2854 81.4459 29.9158C81.4459 33.5461 84.3889 36.4891 88.0192 36.4891Z" fill="url(#paint8_linear_295_31)"/>
<path d="M100.049 50.75C96.0823 50.75 92.7628 53.5781 91.9987 57.3233H83.5322C83.1625 51.7639 80.9538 46.7123 77.4946 42.7617L83.4862 36.7701C84.8189 37.6542 86.3801 38.1324 88.0169 38.1324C90.2124 38.1324 92.2747 37.2763 93.826 35.725C95.3774 34.1737 96.2335 32.1113 96.2335 29.9158C96.2335 27.7203 95.3774 25.6563 93.826 24.1066C92.2764 22.5553 90.2124 21.6991 88.0169 21.6991C85.8214 21.6991 83.7573 22.5553 82.2077 24.1066C80.6564 25.6563 79.8002 27.7203 79.8002 29.9158C79.8002 31.5525 80.2784 33.1137 81.1625 34.4465L75.1709 40.438C71.2204 36.9788 66.1687 34.7702 60.6094 34.4004V25.934C64.3545 25.1698 67.1827 21.8519 67.1827 17.8833C67.1827 13.3526 63.4967 9.66663 58.966 9.66663C54.4353 9.66663 50.7494 13.3526 50.7494 17.8833C50.7494 21.8503 53.5775 25.1698 57.3227 25.934V34.3758C55.4854 34.4974 53.6761 34.8162 51.9227 35.3388C51.0534 35.5968 50.5587 36.5138 50.8184 37.3831C51.0764 38.2508 51.9818 38.7487 52.8627 38.4874C54.8314 37.9007 56.8839 37.6033 58.966 37.6033C70.7454 37.6033 80.3293 47.1872 80.3293 58.9666C80.3293 70.746 70.7454 80.33 58.966 80.33C47.1866 80.33 37.6027 70.746 37.6027 58.9666C37.6027 51.4056 41.4744 44.5595 47.959 40.6517C48.7379 40.1833 48.9877 39.1743 48.5193 38.397C48.051 37.6164 47.0387 37.3667 46.2647 37.8366C44.9977 38.6008 43.826 39.4685 42.7381 40.4134L36.7712 34.4465C37.6553 33.1137 38.1335 31.5525 38.1335 29.9158C38.1335 27.7203 37.2773 25.6579 35.726 24.1066C34.1747 22.5553 32.1123 21.6991 29.9168 21.6991C27.7213 21.6991 25.6573 22.5553 24.1076 24.1066C22.5563 25.6563 21.7001 27.7203 21.7001 29.9158C21.7001 32.1113 22.5563 34.1753 24.1076 35.725C25.6573 37.2763 27.7213 38.1324 29.9168 38.1324C31.5536 38.1324 33.1147 37.6542 34.4475 36.7701L40.4062 42.7288C36.8681 46.7501 34.7268 51.8329 34.3702 57.3233H25.9334C25.1692 53.5781 21.8513 50.75 17.8827 50.75C13.352 50.75 9.66602 54.436 9.66602 58.9666C9.66602 63.4973 13.352 67.1833 17.8827 67.1833C21.8497 67.1833 25.1692 64.3551 25.9334 60.61H34.3998C34.7696 66.1694 36.9782 71.221 40.4374 75.1715L34.4458 81.1631C33.1131 80.279 31.5519 79.8008 29.9152 79.8008C27.7197 79.8008 25.6573 80.657 24.106 82.2083C22.5547 83.7596 21.6985 85.822 21.6985 88.0175C21.6985 90.213 22.5547 92.277 24.106 93.8267C25.6556 95.378 27.7197 96.2341 29.9152 96.2341C32.1107 96.2341 34.1747 95.378 35.7244 93.8267C37.2757 92.277 38.1318 90.213 38.1318 88.0175C38.1318 86.3807 37.6536 84.8195 36.7695 83.4868L42.7611 77.4952C46.7117 80.9544 51.7633 83.1631 57.3227 83.5328V91.9993C53.5775 92.7634 50.7494 96.0813 50.7494 100.05C50.7494 104.581 54.4353 108.267 58.966 108.267C63.4967 108.267 67.1827 104.581 67.1827 100.05C67.1827 96.083 64.3545 92.7634 60.6094 91.9993V83.5328C66.1687 83.1631 71.2204 80.9544 75.1709 77.4952L81.1625 83.4868C80.2784 84.8195 79.8002 86.3807 79.8002 88.0175C79.8002 90.213 80.6564 92.2754 82.2077 93.8267C83.759 95.378 85.8214 96.2341 88.0169 96.2341C90.2124 96.2341 92.2764 95.378 93.826 93.8267C95.3774 92.277 96.2335 90.213 96.2335 88.0175C96.2335 85.822 95.3774 83.758 93.826 82.2083C92.2764 80.657 90.2124 79.8008 88.0169 79.8008C86.3801 79.8008 84.8189 80.279 83.4862 81.1631L77.4946 75.1715C80.9538 71.221 83.1625 66.1694 83.5322 60.61H91.9987C92.7628 64.3551 96.0807 67.1833 100.049 67.1833C104.58 67.1833 108.266 63.4973 108.266 58.9666C108.266 54.436 104.58 50.75 100.049 50.75ZM54.036 17.8833C54.036 15.1652 56.2479 12.9533 58.966 12.9533C61.6841 12.9533 63.896 15.1652 63.896 17.8833C63.896 20.6014 61.6841 22.8133 58.966 22.8133C56.2479 22.8133 54.036 20.6014 54.036 17.8833ZM84.5314 26.4303C85.4615 25.5001 86.6989 24.9858 88.0169 24.9858C89.3348 24.9858 90.5722 25.4985 91.5024 26.4303C92.4325 27.362 92.9469 28.5978 92.9469 29.9158C92.9469 31.2337 92.4341 32.4712 91.5024 33.4013C89.6405 35.2632 86.3932 35.2632 84.5314 33.4013C83.6012 32.4712 83.0869 31.2337 83.0869 29.9158C83.0869 28.5978 83.5996 27.3604 84.5314 26.4303ZM26.4297 33.4013C25.4995 32.4712 24.9852 31.2337 24.9852 29.9158C24.9852 28.5978 25.4979 27.3604 26.4297 26.4303C27.3614 25.5001 28.5972 24.9858 29.9152 24.9858C31.2331 24.9858 32.4706 25.4985 33.4007 26.4303C34.3308 27.362 34.8452 28.5978 34.8452 29.9158C34.8452 31.2337 34.3324 32.4712 33.4007 33.4013C31.5388 35.2632 28.2916 35.2632 26.4297 33.4013ZM17.8827 63.8966C15.1646 63.8966 12.9527 61.6847 12.9527 58.9666C12.9527 56.2486 15.1646 54.0366 17.8827 54.0366C20.6008 54.0366 22.8127 56.2486 22.8127 58.9666C22.8127 61.6847 20.6008 63.8966 17.8827 63.8966ZM33.4007 91.503C31.5388 93.3649 28.2916 93.3649 26.4297 91.503C25.4995 90.5729 24.9852 89.3354 24.9852 88.0175C24.9852 86.6995 25.4979 85.4621 26.4297 84.532C27.3614 83.6018 28.5972 83.0875 29.9152 83.0875C31.2331 83.0875 32.4706 83.6002 33.4007 84.532C34.3308 85.4637 34.8452 86.6995 34.8452 88.0175C34.8452 89.3354 34.3324 90.5729 33.4007 91.503ZM63.896 100.05C63.896 102.768 61.6841 104.98 58.966 104.98C56.2479 104.98 54.036 102.768 54.036 100.05C54.036 97.3319 56.2479 95.12 58.966 95.12C61.6841 95.12 63.896 97.3319 63.896 100.05ZM91.5024 84.532C92.4325 85.4621 92.9469 86.6995 92.9469 88.0175C92.9469 89.3354 92.4341 90.5729 91.5024 91.503C89.6405 93.3649 86.3932 93.3649 84.5314 91.503C83.6012 90.5729 83.0869 89.3354 83.0869 88.0175C83.0869 86.6995 83.5996 85.4621 84.5314 84.532C85.4631 83.6018 86.6989 83.0875 88.0169 83.0875C89.3348 83.0875 90.5722 83.6002 91.5024 84.532ZM100.049 63.8966C97.3313 63.8966 95.1193 61.6847 95.1193 58.9666C95.1193 56.2486 97.3313 54.0366 100.049 54.0366C102.767 54.0366 104.979 56.2486 104.979 58.9666C104.979 61.6847 102.767 63.8966 100.049 63.8966Z" fill="url(#paint9_linear_295_31)"/>
<defs>
<linearGradient id="paint0_linear_295_31" x1="9.66602" y1="9.66663" x2="108.266" y2="108.267" gradientUnits="userSpaceOnUse">
<stop stop-color="#1A75D4"/>
<stop offset="1" stop-color="#2D218B"/>
</linearGradient>
<linearGradient id="paint1_linear_295_31" x1="9.66602" y1="9.66663" x2="108.266" y2="108.267" gradientUnits="userSpaceOnUse">
<stop stop-color="#1A75D4"/>
<stop offset="1" stop-color="#2D218B"/>
</linearGradient>
<linearGradient id="paint2_linear_295_31" x1="9.66602" y1="9.66663" x2="108.266" y2="108.267" gradientUnits="userSpaceOnUse">
<stop stop-color="#1A75D4"/>
<stop offset="1" stop-color="#2D218B"/>
</linearGradient>
<linearGradient id="paint3_linear_295_31" x1="9.66602" y1="9.66663" x2="108.266" y2="108.267" gradientUnits="userSpaceOnUse">
<stop stop-color="#1A75D4"/>
<stop offset="1" stop-color="#2D218B"/>
</linearGradient>
<linearGradient id="paint4_linear_295_31" x1="9.66602" y1="9.66663" x2="108.266" y2="108.267" gradientUnits="userSpaceOnUse">
<stop stop-color="#1A75D4"/>
<stop offset="1" stop-color="#2D218B"/>
</linearGradient>
<linearGradient id="paint5_linear_295_31" x1="9.66602" y1="9.66663" x2="108.266" y2="108.267" gradientUnits="userSpaceOnUse">
<stop stop-color="#1A75D4"/>
<stop offset="1" stop-color="#2D218B"/>
</linearGradient>
<linearGradient id="paint6_linear_295_31" x1="9.66602" y1="9.66663" x2="108.266" y2="108.267" gradientUnits="userSpaceOnUse">
<stop stop-color="#1A75D4"/>
<stop offset="1" stop-color="#2D218B"/>
</linearGradient>
<linearGradient id="paint7_linear_295_31" x1="9.66602" y1="9.66663" x2="108.266" y2="108.267" gradientUnits="userSpaceOnUse">
<stop stop-color="#1A75D4"/>
<stop offset="1" stop-color="#2D218B"/>
</linearGradient>
<linearGradient id="paint8_linear_295_31" x1="9.66602" y1="9.66663" x2="108.266" y2="108.267" gradientUnits="userSpaceOnUse">
<stop stop-color="#1A75D4"/>
<stop offset="1" stop-color="#2D218B"/>
</linearGradient>
<linearGradient id="paint9_linear_295_31" x1="9.66602" y1="9.66663" x2="108.266" y2="108.267" gradientUnits="userSpaceOnUse">
<stop stop-color="#1A75D4"/>
<stop offset="1" stop-color="#2D218B"/>
</linearGradient>
</defs>
</svg>
