<svg width="32" height="32" viewBox="0 0 32 32" fill="none" xmlns="http://www.w3.org/2000/svg">
<path fill-rule="evenodd" clip-rule="evenodd" d="M0 16C0 7.16344 7.16344 0 16 0C24.8366 0 32 7.16344 32 16C32 24.8366 24.8366 32 16 32C7.16344 32 0 24.8366 0 16Z" fill="url(#paint0_linear_65_52461)"/>
<path d="M12.8182 21.1818C12.5152 22.3939 12.0606 23.4545 11.4545 24.3636C9.0303 23.4545 7.21212 22.2424 6 20.7273C6 16.4848 6.90909 12.8485 8.72727 9.81818C10.2424 8.90909 11.7576 8.30303 13.2727 8L14.1818 9.81818C15.3939 9.51515 16.6061 9.51515 17.8182 9.81818L18.7273 8C20.2424 8.30303 21.7576 8.90909 23.2727 9.81818C25.0909 12.8485 26 16.4848 26 20.7273C24.7879 22.2424 22.9697 23.4545 20.5455 24.3636C19.9394 23.4545 19.4848 22.3939 19.1818 21.1818M11.4545 20.7273C14.4848 21.9394 17.5152 21.9394 20.5455 20.7273" stroke="white" stroke-width="2" stroke-linecap="round" stroke-linejoin="round"/>
<path d="M12.3642 17.0911C12.8662 17.0911 13.2733 16.6841 13.2733 16.182C13.2733 15.68 12.8662 15.2729 12.3642 15.2729C11.8621 15.2729 11.4551 15.68 11.4551 16.182C11.4551 16.6841 11.8621 17.0911 12.3642 17.0911Z" stroke="white" stroke-width="2" stroke-linecap="round" stroke-linejoin="round"/>
<path d="M19.6357 17.0911C20.1377 17.0911 20.5447 16.6841 20.5447 16.182C20.5447 15.68 20.1377 15.2729 19.6357 15.2729C19.1336 15.2729 18.7266 15.68 18.7266 16.182C18.7266 16.6841 19.1336 17.0911 19.6357 17.0911Z" stroke="white" stroke-width="2" stroke-linecap="round" stroke-linejoin="round"/>
<defs>
<linearGradient id="paint0_linear_65_52461" x1="0" y1="0" x2="32" y2="32" gradientUnits="userSpaceOnUse">
<stop stop-color="#1A75D4"/>
<stop offset="1" stop-color="#2D218B"/>
</linearGradient>
</defs>
</svg>
