<svg width="32" height="32" viewBox="0 0 32 32" fill="none" xmlns="http://www.w3.org/2000/svg">
<path fill-rule="evenodd" clip-rule="evenodd" d="M0 16C0 7.16344 7.16344 0 16 0C24.8366 0 32 7.16344 32 16C32 24.8366 24.8366 32 16 32C7.16344 32 0 24.8366 0 16Z" fill="url(#paint0_linear_354_174)"/>
<g clip-path="url(#clip0_354_174)">
<mask id="mask0_354_174" style="mask-type:luminance" maskUnits="userSpaceOnUse" x="7" y="7" width="18" height="18">
<path d="M7 7H25V25H7V7Z" fill="white"/>
</mask>
<g mask="url(#mask0_354_174)">
<path fill-rule="evenodd" clip-rule="evenodd" d="M16 7C11.0275 7 7 11.0275 7 16C7 19.9825 9.57625 23.3462 13.1537 24.5387C13.6037 24.6175 13.7725 24.3475 13.7725 24.1112C13.7725 23.8975 13.7613 23.1887 13.7613 22.435C11.5 22.8512 10.915 21.8837 10.735 21.3775C10.6338 21.1187 10.195 20.32 9.8125 20.1062C9.4975 19.9375 9.0475 19.5212 9.80125 19.51C10.51 19.4987 11.0162 20.1625 11.185 20.4325C11.995 21.7937 13.2887 21.4112 13.8062 21.175C13.885 20.59 14.1213 20.1962 14.38 19.9712C12.3775 19.7462 10.285 18.97 10.285 15.5275C10.285 14.5487 10.6338 13.7387 11.2075 13.1087C11.1175 12.8837 10.8025 11.9612 11.2975 10.7237C11.2975 10.7237 12.0512 10.4875 13.7725 11.6462C14.4925 11.4437 15.2575 11.3425 16.0225 11.3425C16.7875 11.3425 17.5525 11.4437 18.2725 11.6462C19.9937 10.4762 20.7475 10.7237 20.7475 10.7237C21.2425 11.9612 20.9275 12.8837 20.8375 13.1087C21.4113 13.7387 21.76 14.5375 21.76 15.5275C21.76 18.9812 19.6562 19.7462 17.6537 19.9712C17.98 20.2525 18.2613 20.7925 18.2613 21.6362C18.2613 22.84 18.25 23.8075 18.25 24.1112C18.25 24.3475 18.4187 24.6287 18.8687 24.5387C20.6554 23.9355 22.2079 22.7873 23.3077 21.2555C24.4076 19.7238 24.9995 17.8857 25 16C25 11.0275 20.9725 7 16 7Z" fill="white"/>
</g>
</g>
<defs>
<linearGradient id="paint0_linear_354_174" x1="0" y1="0" x2="32" y2="32" gradientUnits="userSpaceOnUse">
<stop stop-color="#1A75D4"/>
<stop offset="1" stop-color="#2D218B"/>
</linearGradient>
<clipPath id="clip0_354_174">
<rect width="18" height="18" fill="white" transform="translate(7 7)"/>
</clipPath>
</defs>
</svg>
