<svg width="525" height="335" viewBox="0 0 525 335" fill="none" xmlns="http://www.w3.org/2000/svg">
<path d="M94.1948 300.965H13.1748C12.9421 300.965 12.7539 300.776 12.7539 300.544V159.485C12.7539 154.708 16.6405 150.822 21.4175 150.822H323.893V114.849C323.893 114.616 324.081 114.428 324.314 114.428C324.546 114.428 324.735 114.617 324.735 114.849V151.242C324.735 151.475 324.546 151.663 324.314 151.663H21.4175C17.1047 151.663 13.5959 155.172 13.5959 159.485V300.123H94.1948C94.4272 300.123 94.6159 300.311 94.6159 300.544C94.6157 300.776 94.4272 300.965 94.1948 300.965Z" fill="#1A75D4"/>
<path d="M95.1238 301.04C95.3955 299.366 94.2587 297.789 92.5849 297.517C90.911 297.246 89.3339 298.382 89.0622 300.056C88.7905 301.73 89.9273 303.307 91.6011 303.579C93.275 303.851 94.8521 302.714 95.1238 301.04Z" fill="white"/>
<path d="M92.0851 304.035C90.1597 304.035 88.5938 302.469 88.5938 300.544C88.5938 298.619 90.1599 297.052 92.0851 297.052C94.0101 297.052 95.576 298.619 95.576 300.544C95.576 302.469 94.0099 304.035 92.0851 304.035ZM92.0851 297.894C90.6242 297.894 89.4358 299.083 89.4358 300.544C89.4358 302.004 90.6244 303.193 92.0851 303.193C93.5459 303.193 94.734 302.004 94.734 300.544C94.734 299.083 93.5457 297.894 92.0851 297.894Z" fill="#1A75D4"/>
<path d="M16.1506 252.86C16.5402 251.21 15.5183 249.556 13.868 249.166C12.2177 248.776 10.564 249.798 10.1743 251.449C9.78465 253.099 10.8066 254.753 12.4569 255.142C14.1072 255.532 15.7609 254.51 16.1506 252.86Z" fill="white"/>
<path d="M13.1751 255.626C11.2497 255.626 9.68359 254.06 9.68359 252.135C9.68359 250.21 11.2497 248.643 13.1751 248.643C15.1005 248.643 16.6666 250.21 16.6666 252.135C16.6666 254.06 15.1005 255.626 13.1751 255.626ZM13.1751 249.485C11.7143 249.485 10.5258 250.674 10.5258 252.135C10.5258 253.595 11.7145 254.784 13.1751 254.784C14.636 254.784 15.8244 253.595 15.8244 252.135C15.8244 250.674 14.636 249.485 13.1751 249.485Z" fill="#1A75D4"/>
<path d="M338.414 170.236H20.0166C19.7839 170.236 19.5957 170.047 19.5957 169.815C19.5957 169.582 19.7841 169.394 20.0166 169.394H337.993V114.849C337.993 114.616 338.181 114.428 338.414 114.428C338.646 114.428 338.835 114.616 338.835 114.849V169.815C338.835 170.047 338.646 170.236 338.414 170.236Z" fill="#1A75D4"/>
<path d="M105.229 185.425H34.1875V198.355H105.229V185.425Z" fill="white"/>
<path d="M105.229 198.776H34.1867C33.954 198.776 33.7656 198.588 33.7656 198.356V185.425C33.7656 185.192 33.954 185.004 34.1867 185.004H105.229C105.462 185.004 105.65 185.192 105.65 185.425V198.356C105.65 198.588 105.462 198.776 105.229 198.776ZM34.6076 197.934H104.808V185.846H34.6076V197.934Z" fill="#1A75D4"/>
<path d="M51.0415 198.777H34.1867C33.954 198.777 33.7656 198.588 33.7656 198.356V185.425C33.7656 185.193 33.954 185.004 34.1867 185.004H51.0415C51.2743 185.004 51.4627 185.193 51.4627 185.425V198.356C51.4627 198.588 51.2743 198.777 51.0415 198.777ZM34.6078 197.935H50.6206V185.846H34.6078V197.935Z" fill="#1A75D4"/>
<path d="M51.0415 198.777H34.1867C33.954 198.777 33.7656 198.588 33.7656 198.356V185.425C33.7656 185.193 33.954 185.004 34.1867 185.004H51.0415C51.2743 185.004 51.4627 185.193 51.4627 185.425V198.356C51.4627 198.588 51.2743 198.777 51.0415 198.777ZM34.6078 197.935H50.6206V185.846H34.6078V197.935Z" fill="#1A75D4"/>
<path d="M105.229 205.434H34.1875V218.364H105.229V205.434Z" fill="white"/>
<path d="M105.229 218.785H34.1867C33.954 218.785 33.7656 218.597 33.7656 218.365V205.434C33.7656 205.201 33.954 205.013 34.1867 205.013H105.229C105.462 205.013 105.65 205.201 105.65 205.434V218.365C105.65 218.597 105.462 218.785 105.229 218.785ZM34.6076 217.943H104.808V205.855H34.6076V217.943Z" fill="#1A75D4"/>
<path d="M51.0415 218.785H34.1867C33.954 218.785 33.7656 218.597 33.7656 218.365V205.434C33.7656 205.201 33.954 205.013 34.1867 205.013H51.0415C51.2743 205.013 51.4627 205.201 51.4627 205.434V218.365C51.4627 218.597 51.2743 218.785 51.0415 218.785ZM34.6078 217.943H50.6206V205.855H34.6078V217.943Z" fill="#1A75D4"/>
<path d="M51.0415 218.785H34.1867C33.954 218.785 33.7656 218.597 33.7656 218.365V205.434C33.7656 205.201 33.954 205.013 34.1867 205.013H51.0415C51.2743 205.013 51.4627 205.201 51.4627 205.434V218.365C51.4627 218.597 51.2743 218.785 51.0415 218.785ZM34.6078 217.943H50.6206V205.855H34.6078V217.943Z" fill="#1A75D4"/>
<path d="M105.229 225.442H34.1875V238.373H105.229V225.442Z" fill="white"/>
<path d="M105.229 238.794H34.1867C33.954 238.794 33.7656 238.605 33.7656 238.373V225.442C33.7656 225.21 33.954 225.021 34.1867 225.021H105.229C105.462 225.021 105.65 225.21 105.65 225.442V238.373C105.65 238.605 105.462 238.794 105.229 238.794ZM34.6076 237.952H104.808V225.863H34.6076V237.952Z" fill="#1A75D4"/>
<path d="M51.0415 238.794H34.1867C33.954 238.794 33.7656 238.606 33.7656 238.373V225.443C33.7656 225.21 33.954 225.022 34.1867 225.022H51.0415C51.2743 225.022 51.4627 225.21 51.4627 225.443V238.373C51.4627 238.606 51.2743 238.794 51.0415 238.794ZM34.6078 237.952H50.6206V225.864H34.6078V237.952Z" fill="#1A75D4"/>
<path d="M51.0415 238.794H34.1867C33.954 238.794 33.7656 238.606 33.7656 238.373V225.443C33.7656 225.21 33.954 225.022 34.1867 225.022H51.0415C51.2743 225.022 51.4627 225.21 51.4627 225.443V238.373C51.4627 238.606 51.2743 238.794 51.0415 238.794ZM34.6078 237.952H50.6206V225.864H34.6078V237.952Z" fill="#1A75D4"/>
<path d="M315.805 145.612C315.558 145.612 315.357 145.313 315.357 144.946V93.4193C315.357 93.0514 315.558 92.7534 315.805 92.7534C316.053 92.7534 316.253 93.0517 316.253 93.4193V144.946C316.254 145.313 316.053 145.612 315.805 145.612Z" fill="#1A75D4"/>
<path d="M325.747 161.522H283.704C283.472 161.522 283.283 161.334 283.283 161.101C283.283 160.869 283.472 160.68 283.704 160.68H325.573L330.515 155.737V117.403C330.515 117.171 330.704 116.982 330.936 116.982C331.169 116.982 331.357 117.171 331.357 117.403V155.912C331.357 156.023 331.313 156.131 331.234 156.209L326.044 161.399C325.966 161.478 325.859 161.522 325.747 161.522Z" fill="#1A75D4"/>
<path d="M99.0858 315.296H0.420912C0.188349 315.296 0 315.108 0 314.875V169.815C0 169.582 0.18854 169.394 0.420912 169.394H8.38683C8.61959 169.394 8.80774 169.583 8.80774 169.815C8.80774 170.048 8.61939 170.236 8.38683 170.236H0.842011V314.454H99.0858C99.3186 314.454 99.5067 314.643 99.5067 314.875C99.5069 315.108 99.3186 315.296 99.0858 315.296Z" fill="#1A75D4"/>
<path d="M102.123 315.209C102.308 313.523 101.091 312.007 99.4055 311.822C97.72 311.637 96.2036 312.853 96.0186 314.539C95.8336 316.224 97.05 317.741 98.7356 317.926C100.421 318.111 101.938 316.894 102.123 315.209Z" fill="white"/>
<path d="M99.0851 318.366C97.1597 318.366 95.5938 316.8 95.5938 314.875C95.5938 312.95 97.1599 311.384 99.0851 311.384C101.01 311.384 102.576 312.95 102.576 314.875C102.577 316.8 101.01 318.366 99.0851 318.366ZM99.0851 312.226C97.6242 312.226 96.4358 313.414 96.4358 314.875C96.4358 316.336 97.6244 317.524 99.0851 317.524C100.546 317.524 101.734 316.336 101.734 314.875C101.735 313.414 100.546 312.226 99.0851 312.226Z" fill="#1A75D4"/>
<path d="M92.0911 286.998H35.1008C34.868 286.998 34.6797 286.81 34.6797 286.578V244.871C34.6797 244.639 34.868 244.45 35.1008 244.45C35.3335 244.45 35.5219 244.639 35.5219 244.871V286.156H92.0911C92.3239 286.156 92.5122 286.345 92.5122 286.577C92.5122 286.81 92.3237 286.998 92.0911 286.998Z" fill="#1A75D4"/>
<path d="M38.0764 247.772C38.4661 246.122 37.4441 244.468 35.7938 244.079C34.1435 243.689 32.4898 244.711 32.1001 246.361C31.7104 248.012 32.7324 249.665 34.3827 250.055C36.033 250.445 37.6867 249.423 38.0764 247.772Z" fill="white"/>
<path d="M35.1009 250.538C33.1755 250.538 31.6094 248.972 31.6094 247.047C31.6094 245.122 33.1755 243.556 35.1009 243.556C37.0263 243.556 38.5922 245.122 38.5922 247.047C38.5924 248.972 37.0263 250.538 35.1009 250.538ZM35.1009 244.398C33.6401 244.398 32.4516 245.586 32.4516 247.047C32.4516 248.508 33.6402 249.696 35.1009 249.696C36.5617 249.696 37.7502 248.508 37.7502 247.047C37.7504 245.586 36.5617 244.398 35.1009 244.398Z" fill="#1A75D4"/>
<path d="M207.372 0.837402H0.421875V124.322H207.372V0.837402Z" fill="white"/>
<path d="M207.371 124.743H0.420912C0.188349 124.743 0 124.555 0 124.322V0.837365C0 0.604801 0.18854 0.41626 0.420912 0.41626H207.371C207.604 0.41626 207.792 0.604801 207.792 0.837365V124.322C207.792 124.555 207.604 124.743 207.371 124.743ZM0.842011 123.901H206.95V1.25828H0.842011V123.901Z" fill="#060101"/>
<path d="M389.994 177.23H120.93V206.367H389.994V177.23Z" fill="white"/>
<path d="M389.995 206.788H120.931C120.698 206.788 120.51 206.599 120.51 206.367V177.23C120.51 176.998 120.698 176.809 120.931 176.809H389.995C390.228 176.809 390.416 176.998 390.416 177.23V206.367C390.416 206.599 390.228 206.788 389.995 206.788ZM121.352 205.946H389.574V177.651H121.352V205.946Z" fill="#060101"/>
<path d="M397.314 191.799H114.715V334.208H397.314V191.799Z" fill="white"/>
<path d="M397.313 334.629H114.714C114.481 334.629 114.293 334.441 114.293 334.208V191.799C114.293 191.566 114.481 191.378 114.714 191.378H397.313C397.546 191.378 397.734 191.566 397.734 191.799V334.208C397.734 334.441 397.546 334.629 397.313 334.629ZM115.135 333.787H396.892V192.219H115.135V333.787Z" fill="#060101"/>
<path d="M278.066 131.743H152.289V334.208H278.066V131.743Z" fill="white"/>
<path d="M278.065 334.63H152.288C152.055 334.63 151.867 334.441 151.867 334.209V131.743C151.867 131.51 152.056 131.322 152.288 131.322H278.065C278.298 131.322 278.486 131.51 278.486 131.743V334.208C278.486 334.441 278.298 334.63 278.065 334.63ZM152.709 333.788H277.644V132.164H152.709V333.788Z" fill="#060101"/>
<path d="M268.915 258.816H161.436V267.191H268.915V258.816Z" fill="white"/>
<path d="M268.916 267.612H161.437C161.204 267.612 161.016 267.424 161.016 267.191V258.816C161.016 258.584 161.204 258.395 161.437 258.395H268.916C269.149 258.395 269.337 258.584 269.337 258.816V267.191C269.337 267.424 269.149 267.612 268.916 267.612ZM161.857 266.77H268.495V259.237H161.857V266.77Z" fill="#060101"/>
<path d="M259.322 267.191H171.035V334.209H259.322V267.191Z" fill="white"/>
<path d="M259.323 334.63H171.036C170.804 334.63 170.615 334.441 170.615 334.209V267.191C170.615 266.959 170.804 266.77 171.036 266.77H259.323C259.556 266.77 259.744 266.959 259.744 267.191V334.209C259.744 334.441 259.556 334.63 259.323 334.63ZM171.457 333.788H258.902V267.612H171.457V333.788Z" fill="#060101"/>
<path d="M351.899 198.618H326.359V317.391H351.899V198.618Z" fill="white"/>
<path d="M351.898 317.813H326.358C326.126 317.813 325.938 317.624 325.938 317.392V198.618C325.938 198.386 326.126 198.198 326.358 198.198H351.898C352.131 198.198 352.319 198.386 352.319 198.618V317.392C352.319 317.624 352.13 317.813 351.898 317.813ZM326.78 316.97H351.477V199.039H326.78V316.97Z" fill="#060101"/>
<path d="M318.02 198.618H292.48V317.392H318.02V198.618Z" fill="white"/>
<path d="M318.019 317.813H292.48C292.247 317.813 292.059 317.624 292.059 317.392V198.618C292.059 198.386 292.247 198.198 292.48 198.198H318.019C318.252 198.198 318.44 198.386 318.44 198.618V317.392C318.44 317.624 318.252 317.813 318.019 317.813ZM292.9 316.97H317.598V199.039H292.9V316.97Z" fill="#060101"/>
<path d="M145.312 290.923C145.312 313.359 136.579 319.999 125.806 319.999C115.034 319.999 106.301 313.359 106.301 290.923C106.301 268.487 115.034 238.752 125.806 238.752C136.579 238.752 145.312 268.487 145.312 290.923Z" fill="white"/>
<path d="M125.805 320.421C112.583 320.421 105.879 310.496 105.879 290.923C105.879 269.745 114.246 238.332 125.805 238.332C137.365 238.332 145.732 269.745 145.732 290.923C145.732 310.496 139.028 320.421 125.805 320.421ZM125.805 239.174C115.706 239.174 106.721 268.112 106.721 290.923C106.721 301.261 108.613 308.895 112.343 313.614C115.472 317.572 120.002 319.579 125.805 319.579C131.609 319.579 136.139 317.572 139.268 313.614C142.999 308.895 144.89 301.261 144.89 290.923C144.89 268.112 135.904 239.174 125.805 239.174Z" fill="#060101"/>
<path d="M125.804 334.63C125.571 334.63 125.383 334.441 125.383 334.209V293.562C125.383 293.33 125.571 293.141 125.804 293.141C126.037 293.141 126.225 293.33 126.225 293.562V334.209C126.225 334.441 126.036 334.63 125.804 334.63Z" fill="#060101"/>
<path d="M125.804 315.296C125.627 315.296 125.463 315.184 125.404 315.007C125.331 314.786 125.451 314.548 125.671 314.475C141.207 309.333 137.249 290.072 137.206 289.878C137.157 289.651 137.302 289.427 137.529 289.378C137.759 289.329 137.981 289.474 138.03 289.701C138.073 289.903 142.182 309.898 125.936 315.275C125.892 315.289 125.847 315.296 125.804 315.296Z" fill="#060101"/>
<path d="M124.468 302.82C121.647 302.82 119.293 301.911 117.457 300.108C112.223 294.972 112.984 284.463 113.019 284.018C113.037 283.786 113.244 283.613 113.471 283.631C113.703 283.65 113.876 283.852 113.858 284.084C113.85 284.189 113.094 294.649 118.048 299.509C119.99 301.414 122.587 302.223 125.764 301.913C125.993 301.891 126.202 302.06 126.224 302.291C126.247 302.523 126.077 302.729 125.846 302.751C125.375 302.797 124.915 302.82 124.468 302.82Z" fill="#060101"/>
<path d="M481.928 19.4844H401.826C398.882 19.4844 396.496 17.0983 396.496 14.1548V6.35771C396.496 3.4142 398.882 1.02808 401.826 1.02808H481.928C484.871 1.02808 487.257 3.4142 487.257 6.35771V14.1548C487.257 17.0983 484.871 19.4844 481.928 19.4844Z" fill="white"/>
<path d="M481.927 19.9054H401.825C398.654 19.9054 396.074 17.3257 396.074 14.1548V6.35772C396.074 3.18681 398.654 0.607178 401.825 0.607178H481.927C485.098 0.607178 487.677 3.18701 487.677 6.35772V14.1548C487.678 17.3257 485.098 19.9054 481.927 19.9054ZM401.825 1.44919C399.119 1.44919 396.916 3.65118 396.916 6.35772V14.1548C396.916 16.8614 399.118 19.0633 401.825 19.0633H481.927C484.634 19.0633 486.835 16.8614 486.835 14.1548V6.35772C486.835 3.65118 484.634 1.44919 481.927 1.44919H401.825Z" fill="#060101"/>
<path d="M404.747 17.3666C404.514 17.3666 404.326 17.1781 404.326 16.9455V3.56764C404.326 3.33508 404.515 3.14673 404.747 3.14673C404.98 3.14673 405.168 3.33527 405.168 3.56764V16.9455C405.168 17.1781 404.98 17.3666 404.747 17.3666Z" fill="#D9E9FB"/>
<path d="M414.03 17.3666C413.798 17.3666 413.609 17.1781 413.609 16.9455V3.56764C413.609 3.33508 413.798 3.14673 414.03 3.14673C414.263 3.14673 414.451 3.33527 414.451 3.56764V16.9455C414.451 17.1781 414.263 17.3666 414.03 17.3666Z" fill="#D9E9FB"/>
<path d="M423.312 17.3666C423.079 17.3666 422.891 17.1781 422.891 16.9455V3.56764C422.891 3.33508 423.079 3.14673 423.312 3.14673C423.544 3.14673 423.732 3.33527 423.732 3.56764V16.9455C423.732 17.1781 423.544 17.3666 423.312 17.3666Z" fill="#D9E9FB"/>
<path d="M432.595 17.3666C432.362 17.3666 432.174 17.1781 432.174 16.9455V3.56764C432.174 3.33508 432.362 3.14673 432.595 3.14673C432.828 3.14673 433.016 3.33527 433.016 3.56764V16.9455C433.016 17.1781 432.828 17.3666 432.595 17.3666Z" fill="#D9E9FB"/>
<path d="M441.878 17.3666C441.645 17.3666 441.457 17.1781 441.457 16.9455V3.56764C441.457 3.33508 441.645 3.14673 441.878 3.14673C442.111 3.14673 442.299 3.33527 442.299 3.56764V16.9455C442.299 17.1781 442.111 17.3666 441.878 17.3666Z" fill="#D9E9FB"/>
<path d="M451.157 17.3666C450.924 17.3666 450.736 17.1781 450.736 16.9455V3.56764C450.736 3.33508 450.925 3.14673 451.157 3.14673C451.39 3.14673 451.578 3.33527 451.578 3.56764V16.9455C451.578 17.1781 451.39 17.3666 451.157 17.3666Z" fill="#D9E9FB"/>
<path d="M460.44 17.3666C460.208 17.3666 460.02 17.1781 460.02 16.9455V3.56764C460.02 3.33508 460.208 3.14673 460.44 3.14673C460.673 3.14673 460.862 3.33527 460.862 3.56764V16.9455C460.862 17.1781 460.673 17.3666 460.44 17.3666Z" fill="#D9E9FB"/>
<path d="M469.724 17.3666C469.491 17.3666 469.303 17.1781 469.303 16.9455V3.56764C469.303 3.33508 469.491 3.14673 469.724 3.14673C469.956 3.14673 470.145 3.33527 470.145 3.56764V16.9455C470.145 17.1781 469.956 17.3666 469.724 17.3666Z" fill="#D9E9FB"/>
<path d="M479.007 17.3666C478.774 17.3666 478.586 17.1781 478.586 16.9455V3.56764C478.586 3.33508 478.774 3.14673 479.007 3.14673C479.24 3.14673 479.428 3.33527 479.428 3.56764V16.9455C479.428 17.1781 479.239 17.3666 479.007 17.3666Z" fill="#D9E9FB"/>
<path d="M481.928 41.741H401.826C398.882 41.741 396.496 39.3549 396.496 36.4114V28.6143C396.496 25.6708 398.882 23.2847 401.826 23.2847H481.928C484.871 23.2847 487.257 25.6708 487.257 28.6143V36.4114C487.257 39.3549 484.871 41.741 481.928 41.741Z" fill="white"/>
<path d="M481.927 42.1622H401.825C398.654 42.1622 396.074 39.5826 396.074 36.4117V28.6145C396.074 25.4436 398.654 22.864 401.825 22.864H481.927C485.098 22.864 487.677 25.4436 487.677 28.6145V36.4117C487.677 39.5824 485.098 42.1622 481.927 42.1622ZM401.825 23.706C399.118 23.706 396.916 25.908 396.916 28.6145V36.4117C396.916 39.1182 399.118 41.3202 401.825 41.3202H481.927C484.634 41.3202 486.835 39.1182 486.835 36.4117V28.6145C486.835 25.908 484.634 23.706 481.927 23.706H401.825Z" fill="#060101"/>
<path d="M404.747 39.6227C404.514 39.6227 404.326 39.4341 404.326 39.2015V25.8237C404.326 25.5911 404.515 25.4026 404.747 25.4026C404.98 25.4026 405.168 25.5911 405.168 25.8237V39.2015C405.168 39.4341 404.98 39.6227 404.747 39.6227Z" fill="#D9E9FB"/>
<path d="M414.03 39.6227C413.798 39.6227 413.609 39.4341 413.609 39.2015V25.8237C413.609 25.5911 413.798 25.4026 414.03 25.4026C414.263 25.4026 414.451 25.5911 414.451 25.8237V39.2015C414.451 39.4341 414.263 39.6227 414.03 39.6227Z" fill="#D9E9FB"/>
<path d="M423.312 39.6227C423.079 39.6227 422.891 39.4341 422.891 39.2015V25.8237C422.891 25.5911 423.079 25.4026 423.312 25.4026C423.544 25.4026 423.732 25.5911 423.732 25.8237V39.2015C423.732 39.4341 423.544 39.6227 423.312 39.6227Z" fill="#D9E9FB"/>
<path d="M432.595 39.6227C432.362 39.6227 432.174 39.4341 432.174 39.2015V25.8237C432.174 25.5911 432.362 25.4026 432.595 25.4026C432.828 25.4026 433.016 25.5911 433.016 25.8237V39.2015C433.016 39.4341 432.828 39.6227 432.595 39.6227Z" fill="#D9E9FB"/>
<path d="M441.878 39.6227C441.645 39.6227 441.457 39.4341 441.457 39.2015V25.8237C441.457 25.5911 441.645 25.4026 441.878 25.4026C442.111 25.4026 442.299 25.5911 442.299 25.8237V39.2015C442.299 39.4341 442.111 39.6227 441.878 39.6227Z" fill="#D9E9FB"/>
<path d="M451.157 39.6227C450.924 39.6227 450.736 39.4341 450.736 39.2015V25.8237C450.736 25.5911 450.925 25.4026 451.157 25.4026C451.39 25.4026 451.578 25.5911 451.578 25.8237V39.2015C451.578 39.4341 451.39 39.6227 451.157 39.6227Z" fill="#D9E9FB"/>
<path d="M460.44 39.6227C460.208 39.6227 460.02 39.4341 460.02 39.2015V25.8237C460.02 25.5911 460.208 25.4026 460.44 25.4026C460.673 25.4026 460.862 25.5911 460.862 25.8237V39.2015C460.862 39.4341 460.673 39.6227 460.44 39.6227Z" fill="#D9E9FB"/>
<path d="M469.724 39.6227C469.491 39.6227 469.303 39.4341 469.303 39.2015V25.8237C469.303 25.5911 469.491 25.4026 469.724 25.4026C469.956 25.4026 470.145 25.5911 470.145 25.8237V39.2015C470.145 39.4341 469.956 39.6227 469.724 39.6227Z" fill="#D9E9FB"/>
<path d="M479.007 39.6227C478.774 39.6227 478.586 39.4341 478.586 39.2015V25.8237C478.586 25.5911 478.774 25.4026 479.007 25.4026C479.24 25.4026 479.428 25.5911 479.428 25.8237V39.2015C479.428 39.4341 479.239 39.6227 479.007 39.6227Z" fill="#D9E9FB"/>
<path d="M481.928 63.9974H401.826C398.882 63.9974 396.496 61.6112 396.496 58.6677V50.8706C396.496 47.9271 398.882 45.541 401.826 45.541H481.928C484.872 45.541 487.258 47.9271 487.258 50.8706V58.6677C487.258 61.6111 484.872 63.9974 481.928 63.9974Z" fill="white"/>
<path d="M481.927 64.4181H401.825C398.654 64.4181 396.074 61.8384 396.074 58.6675V50.8704C396.074 47.6995 398.654 45.1199 401.825 45.1199H481.927C485.098 45.1199 487.678 47.6995 487.678 50.8704V58.6675C487.678 61.8384 485.098 64.4181 481.927 64.4181ZM401.825 45.9619C399.118 45.9619 396.917 48.1639 396.917 50.8704V58.6675C396.917 61.3741 399.118 63.576 401.825 63.576H481.927C484.634 63.576 486.836 61.3741 486.836 58.6675V50.8704C486.836 48.1639 484.634 45.9619 481.927 45.9619H401.825Z" fill="#060101"/>
<path d="M404.747 61.8792C404.514 61.8792 404.326 61.6907 404.326 61.4581V48.0803C404.326 47.8477 404.515 47.6592 404.747 47.6592C404.98 47.6592 405.168 47.8477 405.168 48.0803V61.4581C405.168 61.6909 404.98 61.8792 404.747 61.8792Z" fill="#D9E9FB"/>
<path d="M414.03 61.8792C413.798 61.8792 413.609 61.6907 413.609 61.4581V48.0803C413.609 47.8477 413.798 47.6592 414.03 47.6592C414.263 47.6592 414.451 47.8477 414.451 48.0803V61.4581C414.451 61.6909 414.263 61.8792 414.03 61.8792Z" fill="#D9E9FB"/>
<path d="M423.312 61.8792C423.079 61.8792 422.891 61.6907 422.891 61.4581V48.0803C422.891 47.8477 423.079 47.6592 423.312 47.6592C423.544 47.6592 423.732 47.8477 423.732 48.0803V61.4581C423.732 61.6909 423.544 61.8792 423.312 61.8792Z" fill="#D9E9FB"/>
<path d="M432.595 61.8792C432.362 61.8792 432.174 61.6907 432.174 61.4581V48.0803C432.174 47.8477 432.362 47.6592 432.595 47.6592C432.828 47.6592 433.016 47.8477 433.016 48.0803V61.4581C433.016 61.6909 432.828 61.8792 432.595 61.8792Z" fill="#D9E9FB"/>
<path d="M441.878 61.8792C441.645 61.8792 441.457 61.6907 441.457 61.4581V48.0803C441.457 47.8477 441.645 47.6592 441.878 47.6592C442.111 47.6592 442.299 47.8477 442.299 48.0803V61.4581C442.299 61.6909 442.111 61.8792 441.878 61.8792Z" fill="#D9E9FB"/>
<path d="M451.157 61.8792C450.924 61.8792 450.736 61.6907 450.736 61.4581V48.0803C450.736 47.8477 450.925 47.6592 451.157 47.6592C451.39 47.6592 451.578 47.8477 451.578 48.0803V61.4581C451.578 61.6909 451.39 61.8792 451.157 61.8792Z" fill="#D9E9FB"/>
<path d="M460.44 61.8792C460.208 61.8792 460.02 61.6907 460.02 61.4581V48.0803C460.02 47.8477 460.208 47.6592 460.44 47.6592C460.673 47.6592 460.862 47.8477 460.862 48.0803V61.4581C460.862 61.6909 460.673 61.8792 460.44 61.8792Z" fill="#D9E9FB"/>
<path d="M469.724 61.8792C469.491 61.8792 469.303 61.6907 469.303 61.4581V48.0803C469.303 47.8477 469.491 47.6592 469.724 47.6592C469.956 47.6592 470.145 47.8477 470.145 48.0803V61.4581C470.145 61.6909 469.956 61.8792 469.724 61.8792Z" fill="#D9E9FB"/>
<path d="M479.007 61.8792C478.774 61.8792 478.586 61.6907 478.586 61.4581V48.0803C478.586 47.8477 478.774 47.6592 479.007 47.6592C479.24 47.6592 479.428 47.8477 479.428 48.0803V61.4581C479.428 61.6909 479.239 61.8792 479.007 61.8792Z" fill="#D9E9FB"/>
<path d="M481.928 86.2535H401.826C398.882 86.2535 396.496 83.8674 396.496 80.9241V73.127C396.496 70.1835 398.882 67.7974 401.826 67.7974H481.928C484.871 67.7974 487.257 70.1835 487.257 73.127V80.9241C487.257 83.8674 484.871 86.2535 481.928 86.2535Z" fill="white"/>
<path d="M481.927 86.6747H401.825C398.654 86.6747 396.074 84.0948 396.074 80.9241V73.127C396.074 69.9561 398.654 67.3765 401.825 67.3765H481.927C485.098 67.3765 487.677 69.9561 487.677 73.127V80.9241C487.678 84.0948 485.098 86.6747 481.927 86.6747ZM401.825 68.2185C399.119 68.2185 396.916 70.4205 396.916 73.127V80.9241C396.916 83.6306 399.118 85.8326 401.825 85.8326H481.927C484.634 85.8326 486.835 83.6306 486.835 80.9241V73.127C486.835 70.4205 484.634 68.2185 481.927 68.2185H401.825Z" fill="#060101"/>
<path d="M404.747 84.1348C404.514 84.1348 404.326 83.9463 404.326 83.7138V70.3359C404.326 70.1033 404.515 69.9148 404.747 69.9148C404.98 69.9148 405.168 70.1033 405.168 70.3359V83.7138C405.168 83.9463 404.98 84.1348 404.747 84.1348Z" fill="#D9E9FB"/>
<path d="M414.03 84.1351C413.798 84.1351 413.609 83.9466 413.609 83.714V70.3361C413.609 70.1036 413.798 69.915 414.03 69.915C414.263 69.915 414.451 70.1036 414.451 70.3361V83.714C414.451 83.9466 414.263 84.1351 414.03 84.1351Z" fill="#D9E9FB"/>
<path d="M423.312 84.1351C423.079 84.1351 422.891 83.9466 422.891 83.714V70.3361C422.891 70.1036 423.079 69.915 423.312 69.915C423.544 69.915 423.732 70.1036 423.732 70.3361V83.714C423.732 83.9466 423.544 84.1351 423.312 84.1351Z" fill="#D9E9FB"/>
<path d="M432.595 84.1351C432.362 84.1351 432.174 83.9466 432.174 83.714V70.3361C432.174 70.1036 432.362 69.915 432.595 69.915C432.828 69.915 433.016 70.1036 433.016 70.3361V83.714C433.016 83.9466 432.828 84.1351 432.595 84.1351Z" fill="#D9E9FB"/>
<path d="M441.878 84.1351C441.645 84.1351 441.457 83.9466 441.457 83.714V70.3361C441.457 70.1036 441.645 69.915 441.878 69.915C442.111 69.915 442.299 70.1036 442.299 70.3361V83.714C442.299 83.9466 442.111 84.1351 441.878 84.1351Z" fill="#D9E9FB"/>
<path d="M451.157 84.1351C450.924 84.1351 450.736 83.9466 450.736 83.714V70.3361C450.736 70.1036 450.925 69.915 451.157 69.915C451.39 69.915 451.578 70.1036 451.578 70.3361V83.714C451.578 83.9466 451.39 84.1351 451.157 84.1351Z" fill="#D9E9FB"/>
<path d="M460.44 84.1351C460.208 84.1351 460.02 83.9466 460.02 83.714V70.3361C460.02 70.1036 460.208 69.915 460.44 69.915C460.673 69.915 460.862 70.1036 460.862 70.3361V83.714C460.862 83.9466 460.673 84.1351 460.44 84.1351Z" fill="#D9E9FB"/>
<path d="M469.724 84.1351C469.491 84.1351 469.303 83.9466 469.303 83.714V70.3361C469.303 70.1036 469.491 69.915 469.724 69.915C469.956 69.915 470.145 70.1036 470.145 70.3361V83.714C470.145 83.9466 469.956 84.1351 469.724 84.1351Z" fill="#D9E9FB"/>
<path d="M479.007 84.1351C478.774 84.1351 478.586 83.9466 478.586 83.714V70.3361C478.586 70.1036 478.774 69.915 479.007 69.915C479.24 69.915 479.428 70.1036 479.428 70.3361V83.714C479.428 83.9466 479.239 84.1351 479.007 84.1351Z" fill="#D9E9FB"/>
<path d="M481.928 108.51H401.826C398.882 108.51 396.496 106.124 396.496 103.18V95.3833C396.496 92.4398 398.882 90.0537 401.826 90.0537H481.928C484.871 90.0537 487.257 92.4398 487.257 95.3833V103.18C487.258 106.124 484.872 108.51 481.928 108.51Z" fill="white"/>
<path d="M481.927 108.931H401.825C398.654 108.931 396.074 106.352 396.074 103.181V95.3836C396.074 92.2127 398.654 89.6331 401.825 89.6331H481.927C485.098 89.6331 487.677 92.2127 487.677 95.3836V103.181C487.678 106.351 485.098 108.931 481.927 108.931ZM401.825 90.4749C399.119 90.4749 396.916 92.6769 396.916 95.3834V103.181C396.916 105.887 399.118 108.089 401.825 108.089H481.927C484.634 108.089 486.835 105.887 486.835 103.18V95.3832C486.835 92.6767 484.634 90.4747 481.927 90.4747L401.825 90.4749Z" fill="#060101"/>
<path d="M404.747 106.392C404.514 106.392 404.326 106.204 404.326 105.971V92.5933C404.326 92.3607 404.515 92.1724 404.747 92.1724C404.98 92.1724 405.168 92.3609 405.168 92.5933V105.971C405.168 106.204 404.98 106.392 404.747 106.392Z" fill="#D9E9FB"/>
<path d="M414.03 106.392C413.798 106.392 413.609 106.203 413.609 105.971V92.593C413.609 92.3605 413.798 92.1721 414.03 92.1721C414.263 92.1721 414.451 92.3607 414.451 92.593V105.971C414.451 106.203 414.263 106.392 414.03 106.392Z" fill="#D9E9FB"/>
<path d="M423.312 106.392C423.079 106.392 422.891 106.203 422.891 105.971V92.593C422.891 92.3605 423.079 92.1721 423.312 92.1721C423.544 92.1721 423.732 92.3607 423.732 92.593V105.971C423.732 106.203 423.544 106.392 423.312 106.392Z" fill="#D9E9FB"/>
<path d="M432.595 106.392C432.362 106.392 432.174 106.203 432.174 105.971V92.593C432.174 92.3605 432.362 92.1721 432.595 92.1721C432.828 92.1721 433.016 92.3607 433.016 92.593V105.971C433.016 106.203 432.828 106.392 432.595 106.392Z" fill="#D9E9FB"/>
<path d="M441.878 106.392C441.645 106.392 441.457 106.203 441.457 105.971V92.593C441.457 92.3605 441.645 92.1721 441.878 92.1721C442.111 92.1721 442.299 92.3607 442.299 92.593V105.971C442.299 106.203 442.111 106.392 441.878 106.392Z" fill="#D9E9FB"/>
<path d="M451.157 106.392C450.924 106.392 450.736 106.203 450.736 105.971V92.593C450.736 92.3605 450.925 92.1721 451.157 92.1721C451.39 92.1721 451.578 92.3607 451.578 92.593V105.971C451.578 106.203 451.39 106.392 451.157 106.392Z" fill="#D9E9FB"/>
<path d="M460.44 106.392C460.208 106.392 460.02 106.203 460.02 105.971V92.593C460.02 92.3605 460.208 92.1721 460.44 92.1721C460.673 92.1721 460.862 92.3607 460.862 92.593V105.971C460.862 106.203 460.673 106.392 460.44 106.392Z" fill="#D9E9FB"/>
<path d="M469.724 106.392C469.491 106.392 469.303 106.203 469.303 105.971V92.593C469.303 92.3605 469.491 92.1721 469.724 92.1721C469.956 92.1721 470.145 92.3607 470.145 92.593V105.971C470.145 106.203 469.956 106.392 469.724 106.392Z" fill="#D9E9FB"/>
<path d="M479.007 106.392C478.774 106.392 478.586 106.203 478.586 105.971V92.593C478.586 92.3605 478.774 92.1721 479.007 92.1721C479.24 92.1721 479.428 92.3607 479.428 92.593V105.971C479.428 106.203 479.239 106.392 479.007 106.392Z" fill="#D9E9FB"/>
<path d="M481.928 130.766H401.826C398.882 130.766 396.496 128.38 396.496 125.436V117.639C396.496 114.696 398.882 112.31 401.826 112.31H481.928C484.871 112.31 487.258 114.696 487.258 117.639V125.436C487.257 128.38 484.871 130.766 481.928 130.766Z" fill="white"/>
<path d="M481.927 131.187H401.825C398.654 131.187 396.074 128.608 396.074 125.437V117.639C396.074 114.469 398.654 111.889 401.825 111.889H481.927C485.098 111.889 487.678 114.469 487.678 117.639V125.437C487.677 128.608 485.098 131.187 481.927 131.187ZM401.825 112.731C399.118 112.731 396.916 114.933 396.916 117.64V125.437C396.916 128.143 399.118 130.345 401.825 130.345H481.927C484.634 130.345 486.835 128.143 486.835 125.437V117.64C486.835 114.933 484.634 112.731 481.927 112.731H401.825Z" fill="#060101"/>
<path d="M404.747 128.649C404.514 128.649 404.326 128.46 404.326 128.227V114.849C404.326 114.617 404.515 114.428 404.747 114.428C404.98 114.428 405.168 114.617 405.168 114.849V128.227C405.168 128.46 404.98 128.649 404.747 128.649Z" fill="#D9E9FB"/>
<path d="M414.03 128.648C413.798 128.648 413.609 128.46 413.609 128.227V114.849C413.609 114.617 413.798 114.428 414.03 114.428C414.263 114.428 414.451 114.617 414.451 114.849V128.227C414.451 128.46 414.263 128.648 414.03 128.648Z" fill="#D9E9FB"/>
<path d="M423.312 128.648C423.079 128.648 422.891 128.46 422.891 128.227V114.849C422.891 114.617 423.079 114.428 423.312 114.428C423.544 114.428 423.732 114.617 423.732 114.849V128.227C423.732 128.46 423.544 128.648 423.312 128.648Z" fill="#D9E9FB"/>
<path d="M432.595 128.648C432.362 128.648 432.174 128.46 432.174 128.227V114.849C432.174 114.617 432.362 114.428 432.595 114.428C432.828 114.428 433.016 114.617 433.016 114.849V128.227C433.016 128.46 432.828 128.648 432.595 128.648Z" fill="#D9E9FB"/>
<path d="M441.878 128.648C441.645 128.648 441.457 128.46 441.457 128.227V114.849C441.457 114.617 441.645 114.428 441.878 114.428C442.111 114.428 442.299 114.617 442.299 114.849V128.227C442.299 128.46 442.111 128.648 441.878 128.648Z" fill="#D9E9FB"/>
<path d="M451.157 128.648C450.924 128.648 450.736 128.46 450.736 128.227V114.849C450.736 114.617 450.925 114.428 451.157 114.428C451.39 114.428 451.578 114.617 451.578 114.849V128.227C451.578 128.46 451.39 128.648 451.157 128.648Z" fill="#D9E9FB"/>
<path d="M460.44 128.648C460.208 128.648 460.02 128.46 460.02 128.227V114.849C460.02 114.617 460.208 114.428 460.44 114.428C460.673 114.428 460.862 114.617 460.862 114.849V128.227C460.862 128.46 460.673 128.648 460.44 128.648Z" fill="#D9E9FB"/>
<path d="M469.724 128.648C469.491 128.648 469.303 128.46 469.303 128.227V114.849C469.303 114.617 469.491 114.428 469.724 114.428C469.956 114.428 470.145 114.617 470.145 114.849V128.227C470.145 128.46 469.956 128.648 469.724 128.648Z" fill="#D9E9FB"/>
<path d="M479.007 128.648C478.774 128.648 478.586 128.46 478.586 128.227V114.849C478.586 114.617 478.774 114.428 479.007 114.428C479.24 114.428 479.428 114.617 479.428 114.849V128.227C479.428 128.46 479.239 128.648 479.007 128.648Z" fill="#D9E9FB"/>
<path d="M502.418 98.8412C510.795 90.4636 510.795 76.8807 502.418 68.503C494.04 60.1253 480.457 60.1253 472.079 68.503C463.702 76.8807 463.702 90.4636 472.079 98.8412C480.457 107.219 494.04 107.219 502.418 98.8412Z" fill="#1A75D4"/>
<path d="M487.253 100.913C477.746 100.913 470.012 93.1785 470.012 83.6715C470.012 74.1645 477.746 66.4299 487.253 66.4299C496.76 66.4299 504.495 74.1645 504.495 83.6715C504.495 93.1785 496.76 100.913 487.253 100.913ZM487.253 67.1811C478.16 67.1811 470.763 74.5787 470.763 83.6715C470.763 92.7644 478.16 100.162 487.253 100.162C496.346 100.162 503.744 92.7644 503.744 83.6715C503.744 74.5787 496.346 67.1811 487.253 67.1811Z" fill="white"/>
<path d="M351.011 73.7555C359.389 65.3779 359.389 51.795 351.011 43.4173C342.634 35.0396 329.051 35.0396 320.673 43.4173C312.295 51.795 312.295 65.3779 320.673 73.7555C329.051 82.1332 342.634 82.1332 351.011 73.7555Z" fill="#1A75D4"/>
<path d="M335.847 75.8272C326.34 75.8272 318.605 68.0926 318.605 58.5856C318.605 49.0786 326.34 41.344 335.847 41.344C345.354 41.344 353.089 49.0786 353.089 58.5856C353.089 68.0926 345.354 75.8272 335.847 75.8272ZM335.847 42.0951C326.754 42.0951 319.357 49.4927 319.357 58.5856C319.357 67.6784 326.754 75.076 335.847 75.076C344.94 75.076 352.338 67.6784 352.338 58.5856C352.338 49.4927 344.94 42.0951 335.847 42.0951Z" fill="white"/>
<path d="M54.4644 96.1532C62.8421 87.7756 62.8421 74.1927 54.4644 65.815C46.0867 57.4373 32.5038 57.4373 24.1262 65.815C15.7485 74.1927 15.7485 87.7756 24.1261 96.1532C32.5038 104.531 46.0867 104.531 54.4644 96.1532Z" fill="#1A75D4"/>
<path d="M39.3 98.2251C29.793 98.2251 22.0586 90.4906 22.0586 80.9835C22.0586 71.4765 29.793 63.7419 39.3 63.7419C48.807 63.7419 56.5418 71.4765 56.5418 80.9835C56.5419 90.4906 48.807 98.2251 39.3 98.2251ZM39.3 64.4931C30.207 64.4931 22.8097 71.8907 22.8097 80.9835C22.8097 90.0764 30.2072 97.474 39.3 97.474C48.3929 97.474 55.7906 90.0764 55.7906 80.9835C55.7908 71.8907 48.393 64.4931 39.3 64.4931Z" fill="white"/>
<path d="M54.4644 48.6703C62.8421 40.2927 62.8421 26.7098 54.4644 18.3321C46.0867 9.95441 32.5038 9.95442 24.1262 18.3321C15.7485 26.7098 15.7485 40.2927 24.1261 48.6703C32.5038 57.048 46.0867 57.048 54.4644 48.6703Z" fill="#1A75D4"/>
<path d="M39.3 50.7422C29.793 50.7422 22.0586 43.0076 22.0586 33.5006C22.0586 23.9936 29.793 16.259 39.3 16.259C48.807 16.259 56.5418 23.9936 56.5418 33.5006C56.5419 43.0076 48.807 50.7422 39.3 50.7422ZM39.3 17.0102C30.207 17.0102 22.8097 24.4078 22.8097 33.5006C22.8097 42.5935 30.2072 49.9911 39.3 49.9911C48.3929 49.9911 55.7906 42.5935 55.7906 33.5006C55.7908 24.4078 48.393 17.0102 39.3 17.0102Z" fill="white"/>
<path d="M224.689 216.204C233.067 207.827 233.067 194.244 224.689 185.866C216.311 177.488 202.728 177.488 194.351 185.866C185.973 194.244 185.973 207.827 194.351 216.204C202.728 224.582 216.311 224.582 224.689 216.204Z" fill="#1A75D4"/>
<path d="M209.525 218.276C200.018 218.276 192.283 210.541 192.283 201.034C192.283 191.527 200.018 183.793 209.525 183.793C219.032 183.793 226.766 191.527 226.766 201.034C226.767 210.541 219.032 218.276 209.525 218.276ZM209.525 184.544C200.432 184.544 193.034 191.941 193.034 201.034C193.034 210.127 200.432 217.525 209.525 217.525C218.617 217.525 226.015 210.127 226.015 201.034C226.015 191.941 218.618 184.544 209.525 184.544Z" fill="white"/>
<path d="M524.578 165.034H361.012V291.403H524.578V165.034Z" fill="white"/>
<path d="M524.579 291.825H361.013C360.78 291.825 360.592 291.636 360.592 291.404V165.035C360.592 164.802 360.78 164.614 361.013 164.614H524.579C524.812 164.614 525 164.802 525 165.035V291.404C525 291.636 524.812 291.825 524.579 291.825ZM361.434 290.983H524.158V165.456H361.434V290.983Z" fill="#060101"/>
<path d="M513.977 280.8V175.638L371.617 175.638V280.8H513.977Z" fill="#D9E9FB"/>
<path d="M523.76 181.448H380.76V196.448H523.76V181.448Z" fill="white"/>
<path d="M523.76 203.448H380.76V218.448H523.76V203.448Z" fill="white"/>
<path d="M523.76 225.448H380.76V240.448H523.76V225.448Z" fill="white"/>
<path d="M523.76 247.448H380.76V262.448H523.76V247.448Z" fill="white"/>
<path d="M523.76 269.448H380.76V284.448H523.76V269.448Z" fill="white"/>
<path d="M212.881 13.9141H69.8809V28.9141H212.881V13.9141Z" fill="#D9E9FB"/>
<path d="M212.881 35.9141H69.8809V50.9141H212.881V35.9141Z" fill="#D9E9FB"/>
<path d="M212.881 57.9141H69.8809V72.9141H212.881V57.9141Z" fill="#D9E9FB"/>
<path d="M212.881 79.9141H69.8809V94.9141H212.881V79.9141Z" fill="#D9E9FB"/>
<path d="M212.881 101.914H69.8809V116.914H212.881V101.914Z" fill="#D9E9FB"/>
<path d="M315.837 89.8151C315.729 89.8151 315.622 89.7739 315.539 89.6918C315.375 89.5274 315.375 89.2607 315.539 89.0965L324.872 79.7637V57.0188C324.872 56.7863 325.061 56.5979 325.293 56.5979C325.526 56.5979 325.714 56.7864 325.714 57.0188V79.9381C325.714 80.0497 325.67 80.1569 325.591 80.2357L316.135 89.6918C316.052 89.7741 315.945 89.8151 315.837 89.8151Z" fill="#1A75D4"/>
<path d="M324.093 107.948C323.86 107.948 323.672 107.759 323.672 107.527V93.2514C323.672 93.1398 323.716 93.0326 323.795 92.9537L330.514 86.2341V71.8054C330.514 71.5728 330.703 71.3843 330.935 71.3843C331.168 71.3843 331.356 71.5728 331.356 71.8054V86.4085C331.356 86.52 331.312 86.6272 331.233 86.7061L324.514 93.4258V107.527C324.514 107.759 324.326 107.948 324.093 107.948Z" fill="#1A75D4"/>
<path d="M330.095 107.399C329.862 107.399 329.674 107.21 329.674 106.978V98.0276C329.674 97.916 329.718 97.8088 329.797 97.7299L338.622 88.9053V60.613C338.622 60.3804 338.81 60.1919 339.043 60.1919C339.276 60.1919 339.464 60.3804 339.464 60.613V89.0797C339.464 89.1913 339.42 89.2985 339.34 89.3774L330.516 98.202V106.978C330.516 107.21 330.327 107.399 330.095 107.399Z" fill="#1A75D4"/>
<path d="M337.87 107.948C337.637 107.948 337.449 107.759 337.449 107.527V102.267C337.449 102.156 337.494 102.049 337.573 101.97L344.515 95.0269V70.8632C344.515 70.6307 344.704 70.4421 344.936 70.4421C345.169 70.4421 345.357 70.6307 345.357 70.8632V95.2016C345.357 95.3132 345.313 95.4204 345.234 95.4993L338.291 102.442V107.527C338.291 107.759 338.103 107.948 337.87 107.948Z" fill="#1A75D4"/>
</svg>
