<svg width="116" height="116" viewBox="0 0 116 116" fill="none" xmlns="http://www.w3.org/2000/svg">
<path d="M87.8237 57.0011H98.416C99.8057 57.0011 100.934 55.8749 100.934 54.4835C100.934 53.0938 99.8057 51.9659 98.416 51.9659H88.824C90.0308 44.3594 89.4702 39.2152 89.4383 38.9382C89.3242 37.943 88.631 37.1105 87.6743 36.8184C83.8493 35.6469 80.516 34.4586 77.6157 33.2938V27.0703H86.2611C87.3 30.0008 90.0996 32.1055 93.3808 32.1055C97.5449 32.1055 100.934 28.7168 100.934 24.5528C100.934 20.387 97.5449 17 93.3808 17C90.0996 17 87.3 19.1047 86.2611 22.0352H75.0981C73.7067 22.0352 72.5805 23.1614 72.5805 24.5528V31.1035C63.2487 26.6977 60.1554 23.0842 59.9691 22.8593C58.9633 21.4754 56.9712 21.4743 55.9645 22.8593C55.7782 23.0842 52.6849 26.6977 43.353 31.1035V24.5528C43.353 23.1614 42.2268 22.0352 40.8355 22.0352H29.6725C28.6336 19.1047 25.834 17 22.5528 17C18.3887 17 15 20.387 15 24.5528C15 28.7168 18.3887 32.1055 22.5528 32.1055C25.834 32.1055 28.6336 30.0008 29.6725 27.0703H38.3179V33.2938C35.4176 34.4586 32.0843 35.6469 28.2593 36.8184C27.3026 37.1105 26.6094 37.943 26.4953 38.9382C26.4634 39.2152 25.9028 44.3594 27.1096 51.9659H17.5176C16.1279 51.9659 15 53.0938 15 54.4835C15 55.8749 16.1279 57.0011 17.5176 57.0011H28.1099C28.6599 59.2916 29.3027 61.4931 30.1592 63.8909H23.2426C21.8529 63.8909 20.725 65.0171 20.725 66.4085C20.725 67.7982 21.8529 68.9261 23.2426 68.9261H32.1901C34.3748 73.7568 37.0336 78.1231 40.1809 82.1971H29.6725C28.6336 79.2666 25.834 77.1619 22.5528 77.1619C18.3887 77.1619 15 80.5506 15 84.7147C15 88.8788 18.3887 92.2674 22.5528 92.2674C25.834 92.2674 28.6336 90.1627 29.6725 87.2323H44.4742C48.0207 91.0137 52.0471 94.4863 56.5267 97.6097C57.393 98.214 58.5408 98.214 59.4069 97.6097C63.8865 94.4863 67.9129 91.0137 71.4594 87.2323H86.2611C87.3 90.1627 90.0996 92.2674 93.3808 92.2674C97.5449 92.2674 100.934 88.8788 100.934 84.7147C100.934 80.5506 97.5449 77.1619 93.3808 77.1619C90.0996 77.1619 87.3 79.2666 86.2611 82.1971H75.7527C78.8925 78.1329 81.5537 73.7679 83.7435 68.9261H92.691C94.0807 68.9261 95.2086 67.7982 95.2086 66.4085C95.2086 65.0171 94.0807 63.8909 92.691 63.8909H85.7744C86.6298 61.496 87.2728 59.2944 87.8237 57.0011ZM71.8202 69.8978C71.8202 72.4288 69.7625 74.4866 67.2315 74.4866H48.7021C46.1711 74.4866 44.1134 72.4288 44.1134 69.8978V55.4805C44.1134 53.4798 45.399 51.7763 47.1882 51.1485V49.5104C47.1882 43.5672 52.0236 38.7318 57.9668 38.7318C63.91 38.7318 68.7454 43.5672 68.7454 49.5104V51.1485C70.5346 51.7763 71.8202 53.4798 71.8202 55.4805V69.8978Z" fill="url(#paint0_linear_295_41)"/>
<path d="M49.1504 55.9268V69.4512H66.7869V55.9268H49.1504ZM60.4862 63.5769C60.4862 64.9682 59.3584 66.0944 57.9687 66.0944C56.5789 66.0944 55.4511 64.9682 55.4511 63.5769V61.8011C55.4511 60.4097 56.5789 59.2835 57.9687 59.2835C59.3584 59.2835 60.4862 60.4097 60.4862 61.8011V63.5769Z" fill="url(#paint1_linear_295_41)"/>
<path d="M63.7115 49.5104V50.8917H52.2246V49.5104C52.2246 46.3433 54.8009 43.767 57.9681 43.767C61.1352 43.767 63.7115 46.3433 63.7115 49.5104Z" fill="url(#paint2_linear_295_41)"/>
<defs>
<linearGradient id="paint0_linear_295_41" x1="15" y1="17" x2="95.9251" y2="102.788" gradientUnits="userSpaceOnUse">
<stop stop-color="#1A75D4"/>
<stop offset="1" stop-color="#2D218B"/>
</linearGradient>
<linearGradient id="paint1_linear_295_41" x1="49.1504" y1="55.9268" x2="62.2119" y2="72.9596" gradientUnits="userSpaceOnUse">
<stop stop-color="#1A75D4"/>
<stop offset="1" stop-color="#2D218B"/>
</linearGradient>
<linearGradient id="paint2_linear_295_41" x1="52.2246" y1="43.767" x2="58.6074" y2="54.0576" gradientUnits="userSpaceOnUse">
<stop stop-color="#1A75D4"/>
<stop offset="1" stop-color="#2D218B"/>
</linearGradient>
</defs>
</svg>
