<svg width="116" height="116" viewBox="0 0 116 116" fill="none" xmlns="http://www.w3.org/2000/svg">
<path d="M57.9986 60.6471C59.4606 60.6471 60.6457 59.462 60.6457 58.0001C60.6457 56.5382 59.4606 55.353 57.9986 55.353C56.5367 55.353 55.3516 56.5382 55.3516 58.0001C55.3516 59.462 56.5367 60.6471 57.9986 60.6471Z" fill="url(#paint0_linear_295_33)"/>
<path d="M95.0588 50.0588C91.6072 50.0588 88.6648 52.2728 87.5724 55.3545L87.5715 55.3529H76.3408L76.3397 55.3552C75.8895 52.2195 74.6527 49.3348 72.8345 46.909L82.4703 37.2734L82.4701 37.2714C84.5631 38.6595 87.0705 39.4706 89.7647 39.4706C97.0626 39.4706 103 33.5332 103 26.2353C103 18.9374 97.0626 13 89.7647 13C82.4668 13 76.5294 18.9374 76.5294 26.2353C76.5294 28.9296 77.3405 31.4371 78.7286 33.5301L78.7266 33.5299L69.091 43.1655C66.6656 41.3475 63.7814 40.1108 60.6464 39.6606L60.6469 39.6601V28.4278L60.6465 28.4272C63.7277 27.3345 65.9412 24.3922 65.9412 20.9412C65.9412 16.5626 62.3789 13 58 13C53.6214 13 50.0588 16.5626 50.0588 20.9412C50.0588 24.3921 52.2721 27.3345 55.3531 28.4271L55.3529 28.4272V39.6592L55.3542 39.6605C52.219 40.1106 49.3346 41.3475 46.909 43.1655L40.6478 36.9044H40.6468C44.8051 29.878 39.7092 20.9412 31.5294 20.9412C25.6911 20.9412 20.9412 25.6911 20.9412 31.5294C20.9412 39.7025 29.8725 44.8083 36.9045 40.6464L36.9042 40.6478L43.1654 46.909C38.2413 53.4785 38.2319 62.5094 43.1654 69.0912L33.5301 78.7265L33.5311 78.7296C31.4378 77.3408 28.93 76.5294 26.2353 76.5294C18.9375 76.5294 13 82.4668 13 89.7647C13 97.0626 18.9375 103 26.2353 103C33.5332 103 39.4706 97.0626 39.4706 89.7647C39.4706 87.0702 38.6594 84.5627 37.2711 82.4694L37.2737 82.4698L46.909 72.8345C51.3906 76.1936 56.9691 77.2392 62.1141 76.0683L65.0856 83.7968L65.0913 83.7966C62.4036 85.7189 60.6471 88.8631 60.6471 92.4118C60.6471 98.2501 65.3969 103 71.2353 103C77.0736 103 81.8235 98.2501 81.8235 92.4118C81.8235 86.1336 76.3489 81.1718 70.0252 81.8947L70.0261 81.8939L67.0533 74.1624H67.0524C71.971 71.3966 75.5061 66.4515 76.3399 60.6448L76.3409 60.6469H87.5719L87.5724 60.6449C88.6646 63.727 91.6071 65.9412 95.0588 65.9412C99.4378 65.9412 103 62.3789 103 58C103 53.6214 99.4378 50.0588 95.0588 50.0588ZM58 65.9412C53.6214 65.9412 50.0588 62.3789 50.0588 58C50.0588 53.6214 53.6214 50.0588 58 50.0588C62.3789 50.0588 65.9412 53.6214 65.9412 58C65.9412 62.3789 62.3789 65.9412 58 65.9412Z" fill="url(#paint1_linear_295_33)"/>
<defs>
<linearGradient id="paint0_linear_295_33" x1="55.3516" y1="55.353" x2="60.6457" y2="60.6471" gradientUnits="userSpaceOnUse">
<stop stop-color="#1A75D4"/>
<stop offset="1" stop-color="#2D218B"/>
</linearGradient>
<linearGradient id="paint1_linear_295_33" x1="13" y1="13" x2="103" y2="103" gradientUnits="userSpaceOnUse">
<stop stop-color="#1A75D4"/>
<stop offset="1" stop-color="#2D218B"/>
</linearGradient>
</defs>
</svg>
