<svg width="523" height="358" viewBox="0 0 523 358" fill="none" xmlns="http://www.w3.org/2000/svg">
<path d="M345.786 99.6884L345.387 99.6734V62.4628H333.998V32.8282H264.469V62.4628H253.08V96.2046H213.745V117.134L191.162 117.293L191.023 56.8453H148.946V85.4752L147.25 86.1464H65.2581V118.599L33.2571 118.405V150.663H0.457031V249.316H392.337V207.164V150.663V99.3619L345.786 99.6884Z" fill="white"/>
<path d="M392.338 209.273C392.106 209.273 391.919 209.085 391.919 208.854V99.7811H350.839C350.608 99.7811 350.42 99.5933 350.42 99.362C350.42 99.1305 350.608 98.9429 350.839 98.9429H392.338C392.57 98.9429 392.758 99.1306 392.758 99.362V208.854C392.757 209.085 392.57 209.273 392.338 209.273Z" fill="#060101"/>
<path d="M153.718 224.925C153.486 224.925 153.299 224.738 153.299 224.506V136.95C153.299 136.718 153.486 136.531 153.718 136.531C153.95 136.531 154.137 136.719 154.137 136.95V224.506C154.137 224.738 153.95 224.925 153.718 224.925Z" fill="#060101"/>
<path d="M65.0111 147.242C65.0107 147.242 65.0098 147.242 65.0094 147.242C64.7777 147.241 64.591 147.053 64.5918 146.821L64.8386 86.1444C64.8393 85.9134 65.0269 85.7268 65.2577 85.7268H139.215C139.447 85.7268 139.635 85.9146 139.635 86.1459C139.635 86.3775 139.447 86.565 139.215 86.565H65.6756L65.4304 146.824C65.4297 147.056 65.2421 147.242 65.0111 147.242Z" fill="#060101"/>
<path d="M80.3527 106.849H70.2402V123.84H80.3527V106.849Z" fill="#D9E9FB"/>
<path d="M114.841 106.849H104.729V123.84H114.841V106.849Z" fill="#D9E9FB"/>
<path d="M132.085 106.849H121.973V123.84H132.085V106.849Z" fill="#D9E9FB"/>
<path d="M149.329 106.849H139.217V123.84H149.329V106.849Z" fill="#D9E9FB"/>
<path d="M80.3527 128.58H70.2402V145.572H80.3527V128.58Z" fill="#D9E9FB"/>
<path d="M97.5968 128.58H87.4844V145.572H97.5968V128.58Z" fill="#D9E9FB"/>
<path d="M114.841 128.58H104.729V145.572H114.841V128.58Z" fill="#D9E9FB"/>
<path d="M132.085 128.58H121.973V145.572H132.085V128.58Z" fill="#D9E9FB"/>
<path d="M80.3527 150.312H70.2402V167.303H80.3527V150.312Z" fill="#D9E9FB"/>
<path d="M97.5968 150.312H87.4844V167.303H97.5968V150.312Z" fill="#D9E9FB"/>
<path d="M132.085 150.312H121.973V167.303H132.085V150.312Z" fill="#D9E9FB"/>
<path d="M149.329 150.312H139.217V167.303H149.329V150.312Z" fill="#D9E9FB"/>
<path d="M80.3527 172.043H70.2402V189.035H80.3527V172.043Z" fill="#D9E9FB"/>
<path d="M114.841 172.043H104.729V189.035H114.841V172.043Z" fill="#D9E9FB"/>
<path d="M132.085 172.043H121.973V189.035H132.085V172.043Z" fill="#D9E9FB"/>
<path d="M149.329 172.043H139.217V189.035H149.329V172.043Z" fill="#D9E9FB"/>
<path d="M97.5968 193.774H87.4844V210.766H97.5968V193.774Z" fill="#D9E9FB"/>
<path d="M114.841 193.774H104.729V210.766H114.841V193.774Z" fill="#D9E9FB"/>
<path d="M132.085 193.774H121.973V210.766H132.085V193.774Z" fill="#D9E9FB"/>
<path d="M149.329 193.774H139.217V210.766H149.329V193.774Z" fill="#D9E9FB"/>
<path d="M97.5968 215.505H87.4844V232.497H97.5968V215.505Z" fill="#D9E9FB"/>
<path d="M114.841 215.505H104.729V232.497H114.841V215.505Z" fill="#D9E9FB"/>
<path d="M253.081 210.731C252.85 210.731 252.662 210.544 252.662 210.312V62.4627C252.662 62.2312 252.85 62.0434 253.081 62.0434H264.051V32.8282C264.051 32.5966 264.239 32.4091 264.47 32.4091H333.998C334.23 32.4091 334.418 32.5968 334.418 32.8282V62.0434H345.388C345.62 62.0434 345.807 62.2312 345.807 62.4627V126.572C345.807 126.804 345.62 126.992 345.388 126.992C345.156 126.992 344.969 126.804 344.969 126.572V62.882H333.998C333.767 62.882 333.579 62.6942 333.579 62.4629V33.2475H264.89V62.4627C264.89 62.6943 264.702 62.8818 264.47 62.8818H253.501V210.312C253.5 210.544 253.313 210.731 253.081 210.731Z" fill="#060101"/>
<path d="M23.3409 174.26H12.7804C12.5487 174.26 12.3613 174.072 12.3613 173.84C12.3613 173.609 12.5489 173.421 12.7804 173.421H22.9218V158.779H12.7804C12.5487 158.779 12.3613 158.591 12.3613 158.36C12.3613 158.128 12.5489 157.941 12.7804 157.941H23.3409C23.5726 157.941 23.7602 158.128 23.7602 158.36V173.841C23.76 174.072 23.5726 174.26 23.3409 174.26Z" fill="#060101"/>
<path d="M41.3489 174.26H30.7884C30.5567 174.26 30.3691 174.072 30.3691 173.84V158.36C30.3691 158.128 30.5567 157.94 30.7884 157.94C31.0202 157.94 31.2076 158.128 31.2076 158.36V173.421H40.9296V167.789C40.9296 167.558 41.1172 167.37 41.3487 167.37C41.5805 167.37 41.7679 167.558 41.7679 167.789V173.84C41.768 174.072 41.5805 174.26 41.3489 174.26Z" fill="#060101"/>
<path d="M52.9262 174.26H48.798C48.5663 174.26 48.3789 174.072 48.3789 173.84V158.36C48.3789 158.128 48.5665 157.94 48.798 157.94H59.3585C59.5902 157.94 59.7776 158.128 59.7776 158.36C59.7776 158.591 59.59 158.779 59.3585 158.779H49.2171V173.421H52.9262C53.1579 173.421 53.3453 173.609 53.3453 173.84C53.3455 174.072 53.1579 174.26 52.9262 174.26Z" fill="#060101"/>
<path d="M23.3409 194.059H12.7804C12.5487 194.059 12.3613 193.871 12.3613 193.639V178.159C12.3613 177.927 12.5489 177.74 12.7804 177.74C13.0122 177.74 13.1996 177.927 13.1996 178.159V193.22H22.9216V185.469C22.9216 185.238 23.1092 185.05 23.3407 185.05C23.5724 185.05 23.76 185.238 23.76 185.469V193.639C23.76 193.871 23.5726 194.059 23.3409 194.059Z" fill="#060101"/>
<path d="M35.4512 194.059H30.7884C30.5567 194.059 30.3691 193.871 30.3691 193.639V178.159C30.3691 177.927 30.5567 177.74 30.7884 177.74H41.3489C41.5806 177.74 41.768 177.927 41.768 178.159C41.768 178.39 41.5805 178.578 41.3489 178.578H31.2076V193.22H35.4512C35.683 193.22 35.8704 193.408 35.8704 193.639C35.8704 193.871 35.683 194.059 35.4512 194.059Z" fill="#060101"/>
<path d="M41.3489 213.858C41.1172 213.858 40.9298 213.67 40.9298 213.439V198.085H31.2076V205.528C31.2076 205.759 31.02 205.947 30.7884 205.947C30.5567 205.947 30.3691 205.759 30.3691 205.528V197.666C30.3691 197.434 30.5567 197.247 30.7884 197.247H41.3489C41.5806 197.247 41.768 197.435 41.768 197.666V213.439C41.768 213.67 41.5805 213.858 41.3489 213.858Z" fill="#060101"/>
<path d="M59.3585 194.059H48.798C48.5663 194.059 48.3789 193.871 48.3789 193.64C48.3789 193.408 48.5665 193.22 48.798 193.22H58.9394V188.741C58.9394 188.51 59.127 188.322 59.3587 188.322C59.5904 188.322 59.7778 188.51 59.7778 188.741V193.64C59.7778 193.871 59.5902 194.059 59.3585 194.059Z" fill="#060101"/>
<path d="M48.798 213.517C48.5663 213.517 48.3789 213.329 48.3789 213.098V197.958C48.3789 197.726 48.5665 197.539 48.798 197.539H59.3585C59.5902 197.539 59.7776 197.727 59.7776 197.958C59.7776 198.189 59.59 198.377 59.3585 198.377H49.2171V213.098C49.2173 213.329 49.0297 213.517 48.798 213.517Z" fill="#060101"/>
<path d="M0.419117 201.773H0.41874C0.187208 201.773 -0.000190103 201.585 1.44728e-07 201.354L0.0378605 150.663C0.0380507 150.431 0.225826 150.244 0.456977 150.244H32.8345V118.599C32.8345 118.367 33.0221 118.179 33.2536 118.179H63.156C63.3878 118.179 63.5752 118.367 63.5752 118.599C63.5752 118.83 63.3876 119.018 63.156 119.018H33.6729V150.663C33.6729 150.894 33.4854 151.082 33.2536 151.082H0.875717L0.838234 201.354C0.838043 201.586 0.650458 201.773 0.419117 201.773Z" fill="#060101"/>
<path d="M213.745 190.752C213.514 190.752 213.326 190.564 213.326 190.333V96.2045C213.326 95.9729 213.514 95.7852 213.745 95.7852H247.828C248.06 95.7852 248.247 95.9729 248.247 96.2045C248.247 96.436 248.06 96.6236 247.828 96.6236H214.165V190.333C214.165 190.564 213.977 190.752 213.745 190.752Z" fill="#060101"/>
<path d="M210.378 117.661H191.023C190.791 117.661 190.604 117.473 190.604 117.242V57.2646H149.366V80.5968C149.366 80.8283 149.178 81.0159 148.946 81.0159C148.715 81.0159 148.527 80.8281 148.527 80.5968V56.8455C148.527 56.6139 148.715 56.4261 148.946 56.4261H191.023C191.255 56.4261 191.443 56.6139 191.443 56.8455V116.822H210.379C210.61 116.822 210.798 117.01 210.798 117.242C210.798 117.473 210.61 117.661 210.378 117.661Z" fill="#060101"/>
<path d="M185.974 74.456C185.742 74.456 185.555 74.2683 185.555 74.0369V64.0839C185.555 63.8524 185.742 63.6648 185.974 63.6648C186.206 63.6648 186.393 63.8526 186.393 64.0839V74.0369C186.393 74.2683 186.206 74.456 185.974 74.456Z" fill="#060101"/>
<path d="M185.974 95.2856C185.742 95.2856 185.555 95.0979 185.555 94.8665V84.9135C185.555 84.682 185.742 84.4944 185.974 84.4944C186.206 84.4944 186.393 84.6822 186.393 84.9135V94.8665C186.393 95.0979 186.206 95.2856 185.974 95.2856Z" fill="#060101"/>
<path d="M185.974 116.115C185.742 116.115 185.555 115.927 185.555 115.696V105.743C185.555 105.512 185.742 105.324 185.974 105.324C186.206 105.324 186.393 105.512 186.393 105.743V115.696C186.393 115.927 186.206 116.115 185.974 116.115Z" fill="#060101"/>
<path d="M179.515 95.2856C179.283 95.2856 179.096 95.0979 179.096 94.8665V84.9135C179.096 84.682 179.283 84.4944 179.515 84.4944C179.747 84.4944 179.934 84.6822 179.934 84.9135V94.8665C179.934 95.0979 179.747 95.2856 179.515 95.2856Z" fill="#060101"/>
<path d="M179.515 116.115C179.283 116.115 179.096 115.927 179.096 115.696V105.743C179.096 105.512 179.283 105.324 179.515 105.324C179.747 105.324 179.934 105.512 179.934 105.743V115.696C179.934 115.927 179.747 116.115 179.515 116.115Z" fill="#060101"/>
<path d="M179.515 136.945C179.283 136.945 179.096 136.757 179.096 136.526V126.573C179.096 126.341 179.283 126.154 179.515 126.154C179.747 126.154 179.934 126.341 179.934 126.573V136.526C179.934 136.757 179.747 136.945 179.515 136.945Z" fill="#060101"/>
<path d="M173.058 116.115C172.826 116.115 172.639 115.927 172.639 115.696V105.743C172.639 105.512 172.826 105.324 173.058 105.324C173.29 105.324 173.477 105.512 173.477 105.743V115.696C173.477 115.927 173.29 116.115 173.058 116.115Z" fill="#060101"/>
<path d="M173.058 136.945C172.826 136.945 172.639 136.757 172.639 136.526V126.573C172.639 126.341 172.826 126.154 173.058 126.154C173.29 126.154 173.477 126.341 173.477 126.573V136.526C173.477 136.757 173.29 136.945 173.058 136.945Z" fill="#060101"/>
<path d="M166.601 95.2856C166.369 95.2856 166.182 95.0979 166.182 94.8665V84.9135C166.182 84.682 166.369 84.4944 166.601 84.4944C166.832 84.4944 167.02 84.6822 167.02 84.9135V94.8665C167.02 95.0979 166.832 95.2856 166.601 95.2856Z" fill="#060101"/>
<path d="M166.601 116.115C166.369 116.115 166.182 115.927 166.182 115.696V105.743C166.182 105.512 166.369 105.324 166.601 105.324C166.832 105.324 167.02 105.512 167.02 105.743V115.696C167.02 115.927 166.832 116.115 166.601 116.115Z" fill="#060101"/>
<path d="M185.974 156.293C185.742 156.293 185.555 156.105 185.555 155.874V145.921C185.555 145.689 185.742 145.501 185.974 145.501C186.206 145.501 186.393 145.689 186.393 145.921V155.874C186.393 156.105 186.206 156.293 185.974 156.293Z" fill="#060101"/>
<path d="M179.515 156.293C179.283 156.293 179.096 156.105 179.096 155.874V145.921C179.096 145.689 179.283 145.501 179.515 145.501C179.747 145.501 179.934 145.689 179.934 145.921V155.874C179.934 156.105 179.747 156.293 179.515 156.293Z" fill="#060101"/>
<path d="M179.515 177.122C179.283 177.122 179.096 176.934 179.096 176.703V166.75C179.096 166.518 179.283 166.331 179.515 166.331C179.747 166.331 179.934 166.519 179.934 166.75V176.703C179.934 176.935 179.747 177.122 179.515 177.122Z" fill="#060101"/>
<path d="M173.058 177.439C172.826 177.439 172.639 177.251 172.639 177.02V167.067C172.639 166.835 172.826 166.648 173.058 166.648C173.29 166.648 173.477 166.835 173.477 167.067V177.02C173.477 177.251 173.29 177.439 173.058 177.439Z" fill="#060101"/>
<path d="M166.601 177.439C166.369 177.439 166.182 177.251 166.182 177.02V167.067C166.182 166.835 166.369 166.648 166.601 166.648C166.832 166.648 167.02 166.835 167.02 167.067V177.02C167.02 177.251 166.832 177.439 166.601 177.439Z" fill="#060101"/>
<path d="M166.601 156.293C166.369 156.293 166.182 156.105 166.182 155.874V145.921C166.182 145.689 166.369 145.501 166.601 145.501C166.832 145.501 167.02 145.689 167.02 145.921V155.874C167.02 156.105 166.832 156.293 166.601 156.293Z" fill="#060101"/>
<path d="M166.601 197.952C166.369 197.952 166.182 197.764 166.182 197.533V187.58C166.182 187.348 166.369 187.161 166.601 187.161C166.832 187.161 167.02 187.348 167.02 187.58V197.533C167.02 197.764 166.832 197.952 166.601 197.952Z" fill="#060101"/>
<path d="M326.357 121.379H296.742V130.032H301.713V233.322H321.386V130.032H326.357V121.379Z" fill="white"/>
<path d="M321.387 233.741H301.714C301.482 233.741 301.295 233.553 301.295 233.322V130.451H296.743C296.512 130.451 296.324 130.263 296.324 130.032V121.379C296.324 121.147 296.512 120.959 296.743 120.959H326.358C326.59 120.959 326.777 121.147 326.777 121.379V130.032C326.777 130.264 326.59 130.451 326.358 130.451H321.807V233.322C321.806 233.553 321.619 233.741 321.387 233.741ZM302.133 232.903H320.968V130.032C320.968 129.8 321.156 129.613 321.387 129.613H325.939V121.798H297.162V129.613H301.714C301.945 129.613 302.133 129.801 302.133 130.032V232.903H302.133Z" fill="#060101"/>
<path d="M335.197 249.835V236.962H328.227V230.002H294.874V236.962H287.904V249.835H335.197Z" fill="white"/>
<path d="M335.196 250.254C334.964 250.254 334.777 250.066 334.777 249.835V237.381H328.226C327.994 237.381 327.807 237.194 327.807 236.962V230.421H295.293V236.962C295.293 237.194 295.105 237.381 294.874 237.381H288.323V249.835C288.323 250.067 288.135 250.254 287.903 250.254C287.672 250.254 287.484 250.066 287.484 249.835V236.962C287.484 236.731 287.672 236.543 287.903 236.543H294.455V230.002C294.455 229.771 294.642 229.583 294.874 229.583H328.226C328.458 229.583 328.645 229.771 328.645 230.002V236.543H335.196C335.428 236.543 335.615 236.731 335.615 236.962V249.835C335.615 250.066 335.428 250.254 335.196 250.254Z" fill="#060101"/>
<path d="M408.209 121.379H378.594V130.032H383.565V233.322H403.238V130.032H408.209V121.379Z" fill="white"/>
<path d="M403.238 233.741H383.564C383.333 233.741 383.145 233.553 383.145 233.322V130.451H378.593C378.361 130.451 378.174 130.264 378.174 130.032V121.379C378.174 121.147 378.361 120.96 378.593 120.96H408.209C408.441 120.96 408.628 121.147 408.628 121.379V130.032C408.628 130.264 408.441 130.451 408.209 130.451H403.657V233.322C403.657 233.553 403.47 233.741 403.238 233.741ZM383.983 232.903H402.819V130.032C402.819 129.801 403.006 129.613 403.238 129.613H407.79V121.798H379.012V129.613H383.564C383.796 129.613 383.983 129.801 383.983 130.032V232.903Z" fill="#060101"/>
<path d="M417.047 249.835V236.962H410.077V230.002H376.724V236.962H369.754V249.835H417.047Z" fill="white"/>
<path d="M417.048 250.254C416.817 250.254 416.629 250.067 416.629 249.835V237.382H410.078C409.846 237.382 409.659 237.194 409.659 236.963V230.421H377.144V236.963C377.144 237.194 376.957 237.382 376.725 237.382H370.174V249.835C370.174 250.067 369.987 250.254 369.755 250.254C369.523 250.254 369.336 250.067 369.336 249.835V236.963C369.336 236.731 369.523 236.543 369.755 236.543H376.306V230.002C376.306 229.771 376.493 229.583 376.725 229.583H410.078C410.309 229.583 410.497 229.771 410.497 230.002V236.543H417.048C417.28 236.543 417.467 236.731 417.467 236.963V249.835C417.467 250.067 417.28 250.254 417.048 250.254Z" fill="#060101"/>
<path d="M490.063 121.379H460.447V130.032H465.418V232.333H485.092V130.032H490.063V121.379Z" fill="white"/>
<path d="M485.091 232.752H465.418C465.186 232.752 464.998 232.564 464.998 232.333V130.451H460.446C460.215 130.451 460.027 130.263 460.027 130.032V121.379C460.027 121.147 460.215 120.959 460.446 120.959H490.062C490.294 120.959 490.481 121.147 490.481 121.379V130.032C490.481 130.264 490.294 130.451 490.062 130.451H485.511V232.333C485.51 232.564 485.323 232.752 485.091 232.752ZM465.837 231.913H484.672V130.032C484.672 129.8 484.86 129.613 485.091 129.613H489.643V121.798H460.865V129.613H465.417C465.649 129.613 465.837 129.8 465.837 130.032L465.837 231.913Z" fill="#060101"/>
<path d="M498.902 249.835V236.962H491.932V230.002H458.58V236.962H451.609V249.835H498.902Z" fill="white"/>
<path d="M498.902 250.254C498.67 250.254 498.482 250.066 498.482 249.835V237.381H491.931C491.7 237.381 491.512 237.193 491.512 236.962V230.421H458.998V236.962C458.998 237.194 458.811 237.381 458.579 237.381H452.028V249.835C452.028 250.066 451.84 250.254 451.609 250.254C451.377 250.254 451.189 250.066 451.189 249.835V236.962C451.189 236.731 451.377 236.543 451.609 236.543H458.16V230.002C458.16 229.77 458.347 229.583 458.579 229.583H491.931C492.163 229.583 492.351 229.771 492.351 230.002V236.543H498.902C499.133 236.543 499.321 236.731 499.321 236.962V249.835C499.321 250.066 499.133 250.254 498.902 250.254Z" fill="#060101"/>
<path d="M509.729 112.471H277.075C276.844 112.471 276.656 112.283 276.656 112.051C276.656 111.82 276.844 111.632 277.075 111.632H509.729C509.96 111.632 510.148 111.82 510.148 112.051C510.148 112.283 509.96 112.471 509.729 112.471Z" fill="#060101"/>
<path d="M509.73 249.835H277.076V261.99H509.73V249.835Z" fill="white"/>
<path d="M509.729 262.409C509.497 262.409 509.31 262.221 509.31 261.99V250.254H277.495V261.99C277.495 262.221 277.307 262.409 277.075 262.409C276.844 262.409 276.656 262.221 276.656 261.99V249.835C276.656 249.604 276.844 249.416 277.075 249.416H509.729C509.96 249.416 510.148 249.604 510.148 249.835V261.99C510.148 262.221 509.961 262.409 509.729 262.409Z" fill="#060101"/>
<path d="M476.922 261.99H522.336V274.144H264.471V261.99H315.409H476.922Z" fill="white"/>
<path d="M522.336 274.563H264.47C264.238 274.563 264.051 274.375 264.051 274.144V261.989C264.051 261.758 264.238 261.57 264.47 261.57H315.408C315.64 261.57 315.827 261.758 315.827 261.989C315.827 262.221 315.64 262.409 315.408 262.409H264.889V273.724H521.916V262.409H476.921C476.69 262.409 476.502 262.221 476.502 261.989C476.502 261.758 476.69 261.57 476.921 261.57H522.336C522.567 261.57 522.755 261.758 522.755 261.989V274.144C522.755 274.375 522.567 274.563 522.336 274.563Z" fill="#060101"/>
<path d="M393.403 59.4198L277.076 100.307H509.73L393.403 59.4198Z" fill="white"/>
<path d="M509.729 100.727H277.075C276.871 100.727 276.697 100.579 276.662 100.378C276.628 100.176 276.744 99.9798 276.936 99.9121L393.263 59.0245C393.353 58.993 393.451 58.993 393.541 59.0245L509.868 99.9121C510.06 99.9798 510.176 100.177 510.142 100.378C510.107 100.579 509.933 100.727 509.729 100.727ZM279.532 99.8883H507.272L393.402 59.8643L279.532 99.8883Z" fill="#060101"/>
<path d="M357.087 338.416H476.304C485.845 338.416 493.651 330.61 493.651 321.069V75.3521C493.651 65.8114 485.845 58.0051 476.304 58.0051H357.087C347.547 58.0051 339.74 65.8112 339.74 75.3521V321.069C339.74 330.61 347.546 338.416 357.087 338.416Z" fill="white"/>
<path d="M476.303 338.835H357.087C347.29 338.835 339.32 330.865 339.32 321.069V75.3522C339.32 65.5559 347.29 57.5861 357.087 57.5861H476.303C486.099 57.5861 494.07 65.5559 494.07 75.3522V321.069C494.069 330.865 486.099 338.835 476.303 338.835ZM357.087 58.4245C347.753 58.4245 340.159 66.0182 340.159 75.3522V321.069C340.159 330.403 347.753 337.997 357.087 337.997H476.303C485.637 337.997 493.231 330.403 493.231 321.069V75.3522C493.231 66.0182 485.637 58.4245 476.303 58.4245H357.087Z" fill="#060101"/>
<path d="M360.436 329.514H472.955C480.185 329.514 486.101 323.599 486.101 316.369V79.2784C486.101 72.0484 480.185 66.1331 472.955 66.1331H360.436C353.206 66.1331 347.291 72.0484 347.291 79.2784V316.369C347.291 323.599 353.206 329.514 360.436 329.514Z" fill="white"/>
<path d="M472.955 329.933H360.436C352.956 329.933 346.871 323.848 346.871 316.369V79.2784C346.871 71.7989 352.956 65.7139 360.436 65.7139H472.955C480.434 65.7139 486.519 71.7988 486.519 79.2784V316.369C486.52 323.848 480.434 329.933 472.955 329.933ZM360.436 66.5523C353.418 66.5523 347.709 72.2613 347.709 79.2784V316.369C347.709 323.386 353.418 329.095 360.436 329.095H472.955C479.972 329.095 485.681 323.386 485.681 316.369V79.2784C485.681 72.2613 479.972 66.5523 472.955 66.5523H360.436Z" fill="#060101"/>
<path d="M431.117 74.4867H400.528C400.297 74.4867 400.109 74.2989 400.109 74.0676C400.109 73.836 400.297 73.6484 400.528 73.6484H431.117C431.349 73.6484 431.536 73.8362 431.536 74.0676C431.536 74.2989 431.349 74.4867 431.117 74.4867Z" fill="#060101"/>
<path d="M388.516 205.322V199.283H385.245V196.017H369.598V199.283H366.328V205.322H388.516Z" fill="white"/>
<path d="M388.515 205.741C388.284 205.741 388.096 205.553 388.096 205.322V199.702H385.245C385.013 199.702 384.826 199.514 384.826 199.283V196.437H370.017V199.283C370.017 199.514 369.829 199.702 369.598 199.702H366.747V205.322C366.747 205.554 366.559 205.741 366.327 205.741C366.096 205.741 365.908 205.553 365.908 205.322V199.283C365.908 199.051 366.096 198.864 366.327 198.864H369.178V196.018C369.178 195.786 369.366 195.598 369.598 195.598H385.245C385.477 195.598 385.664 195.786 385.664 196.018V198.864H388.515C388.747 198.864 388.935 199.052 388.935 199.283V205.322C388.934 205.553 388.747 205.741 388.515 205.741Z" fill="#060101"/>
<path d="M422.771 145.056H408.877V149.116H411.209V197.574H420.439V149.116H422.771V145.056Z" fill="white"/>
<path d="M426.918 205.322V199.283H423.648V196.017H408V199.283H404.73V205.322H426.918Z" fill="white"/>
<path d="M426.918 205.741C426.686 205.741 426.498 205.553 426.498 205.322V199.702H423.647C423.416 199.702 423.228 199.514 423.228 199.283V196.437H408.419V199.283C408.419 199.514 408.232 199.702 408 199.702H405.149V205.322C405.149 205.554 404.961 205.741 404.73 205.741C404.498 205.741 404.311 205.553 404.311 205.322V199.283C404.311 199.051 404.498 198.864 404.73 198.864H407.581V196.018C407.581 195.786 407.768 195.598 408 195.598H423.647C423.879 195.598 424.067 195.786 424.067 196.018V198.864H426.918C427.149 198.864 427.337 199.052 427.337 199.283V205.322C427.337 205.553 427.149 205.741 426.918 205.741Z" fill="#060101"/>
<path d="M461.17 145.056H447.275V149.116H449.608V197.111H458.838V149.116H461.17V145.056Z" fill="white"/>
<path d="M465.317 205.322V199.283H462.046V196.017H446.399V199.283H443.129V205.322H465.317Z" fill="white"/>
<path d="M465.316 205.741C465.084 205.741 464.896 205.553 464.896 205.322V199.702H462.046C461.814 199.702 461.626 199.514 461.626 199.283V196.437H446.817V199.283C446.817 199.514 446.63 199.702 446.398 199.702H443.547V205.322C443.547 205.554 443.36 205.741 443.128 205.741C442.896 205.741 442.709 205.553 442.709 205.322V199.283C442.709 199.051 442.896 198.864 443.128 198.864H445.979V196.018C445.979 195.786 446.166 195.598 446.398 195.598H462.045C462.277 195.598 462.464 195.786 462.464 196.018V198.864H465.315C465.547 198.864 465.735 199.052 465.735 199.283V205.322C465.735 205.553 465.547 205.741 465.316 205.741Z" fill="#060101"/>
<path d="M470.398 141.1H361.247C361.016 141.1 360.828 140.912 360.828 140.681C360.828 140.449 361.016 140.261 361.247 140.261H470.398C470.629 140.261 470.817 140.449 470.817 140.681C470.817 140.912 470.629 141.1 470.398 141.1Z" fill="#060101"/>
<path d="M470.398 205.323H361.248V211.025H470.398V205.323Z" fill="white"/>
<path d="M470.398 211.444C470.166 211.444 469.978 211.256 469.978 211.025V205.742H361.667V211.025C361.667 211.256 361.479 211.444 361.247 211.444C361.016 211.444 360.828 211.256 360.828 211.025V205.322C360.828 205.091 361.016 204.903 361.247 204.903H470.398C470.629 204.903 470.817 205.091 470.817 205.322V211.025C470.817 211.256 470.629 211.444 470.398 211.444Z" fill="#060101"/>
<path d="M455.006 211.024H476.312V216.727H355.334V211.024H379.232H455.006Z" fill="white"/>
<path d="M476.312 217.146H355.333C355.101 217.146 354.914 216.958 354.914 216.727V211.025C354.914 210.793 355.102 210.605 355.333 210.605H379.231C379.463 210.605 379.65 210.793 379.65 211.025C379.65 211.256 379.463 211.444 379.231 211.444H355.752V216.308H475.892V211.444H455.005C454.774 211.444 454.586 211.256 454.586 211.025C454.586 210.793 454.774 210.605 455.005 210.605H476.312C476.543 210.605 476.731 210.793 476.731 211.025V216.727C476.731 216.958 476.543 217.146 476.312 217.146Z" fill="#060101"/>
<path d="M415.823 115.989L361.248 135.171H470.398L415.823 115.989Z" fill="white"/>
<path d="M470.397 135.59H361.247C361.043 135.59 360.869 135.443 360.834 135.242C360.8 135.04 360.916 134.843 361.108 134.776L415.683 115.593C415.773 115.561 415.871 115.561 415.961 115.593L470.537 134.776C470.729 134.843 470.845 135.04 470.811 135.242C470.776 135.443 470.602 135.59 470.397 135.59ZM363.704 134.752H467.941L415.822 116.433L363.704 134.752Z" fill="#060101"/>
<path d="M432.748 310.732C442.099 301.381 442.099 286.219 432.748 276.868C423.397 267.517 408.236 267.517 398.885 276.868C389.534 286.219 389.534 301.381 398.885 310.732C408.236 320.083 423.397 320.083 432.748 310.732Z" fill="#1A75D4"/>
<path d="M415.823 313.044C405.211 313.044 396.578 304.411 396.578 293.799C396.578 283.187 405.211 274.554 415.823 274.554C426.434 274.554 435.068 283.187 435.068 293.799C435.068 304.411 426.434 313.044 415.823 313.044ZM415.823 275.393C405.673 275.393 397.417 283.65 397.417 293.799C397.417 303.948 405.674 312.206 415.823 312.206C425.972 312.206 434.23 303.948 434.23 293.799C434.23 283.65 425.972 275.393 415.823 275.393Z" fill="white"/>
<path d="M82.7949 104.795C92.146 95.4438 92.146 80.2827 82.7949 70.9316C73.4438 61.5805 58.2827 61.5806 48.9316 70.9316C39.5806 80.2827 39.5805 95.4438 48.9316 104.795C58.2827 114.146 73.4438 114.146 82.7949 104.795Z" fill="#1A75D4"/>
<path d="M65.8697 107.107C55.2581 107.107 46.625 98.474 46.625 87.8623C46.625 77.2507 55.2581 68.6174 65.8697 68.6174C76.4814 68.6174 85.1148 77.2507 85.1148 87.8623C85.115 98.474 76.4814 107.107 65.8697 107.107ZM65.8697 69.4559C55.7202 69.4559 47.4634 77.713 47.4634 87.8623C47.4634 98.0117 55.7204 106.269 65.8697 106.269C76.0191 106.269 84.2764 98.0117 84.2764 87.8623C84.2766 77.713 76.0193 69.4559 65.8697 69.4559Z" fill="white"/>
<path d="M477.795 152.795C487.146 143.444 487.146 128.283 477.795 118.932C468.444 109.581 453.283 109.581 443.932 118.932C434.581 128.283 434.581 143.444 443.932 152.795C453.283 162.146 468.444 162.146 477.795 152.795Z" fill="#1A75D4"/>
<path d="M460.87 155.107C450.258 155.107 441.625 146.474 441.625 135.862C441.625 125.251 450.258 116.617 460.87 116.617C471.481 116.617 480.115 125.251 480.115 135.862C480.115 146.474 471.481 155.107 460.87 155.107ZM460.87 117.456C450.72 117.456 442.463 125.713 442.463 135.862C442.463 146.012 450.72 154.269 460.87 154.269C471.019 154.269 479.276 146.012 479.276 135.862C479.277 125.713 471.019 117.456 460.87 117.456Z" fill="white"/>
<path d="M391.876 273.123C391.769 273.123 391.662 273.083 391.58 273.001C391.416 272.837 391.416 272.571 391.58 272.408L415.525 248.463C415.682 248.305 415.961 248.305 416.118 248.463L440.063 272.408C440.227 272.571 440.227 272.837 440.063 273.001C439.899 273.164 439.634 273.164 439.47 273.001L415.821 249.352L392.173 273.001C392.091 273.083 391.983 273.123 391.876 273.123Z" fill="#060101"/>
<path d="M380.732 141.236H240.377C232.223 141.236 225.613 134.626 225.613 126.473V46.0018C225.613 37.848 232.223 31.238 240.377 31.238H380.732C388.886 31.238 395.496 37.848 395.496 46.0018V126.472C395.496 134.626 388.886 141.236 380.732 141.236Z" fill="white"/>
<path d="M380.733 141.656H240.378C232.006 141.656 225.195 134.844 225.195 126.473V46.0019C225.195 37.63 232.006 30.819 240.378 30.819H380.733C389.105 30.819 395.917 37.63 395.917 46.0019V126.472C395.917 134.845 389.105 141.656 380.733 141.656ZM240.378 31.6574C232.468 31.6574 226.034 38.0923 226.034 46.0019V126.473C226.034 134.382 232.468 140.817 240.378 140.817H380.733C388.643 140.817 395.078 134.382 395.078 126.473V46.0021C395.078 38.0925 388.643 31.6576 380.733 31.6576H240.378V31.6574Z" fill="#060101"/>
<path d="M262.687 44H242.346C238.841 44 236 46.0113 236 48.4923V55.5077C236 57.9888 238.841 60 242.346 60H262.687C266.191 60 269.032 57.9888 269.032 55.5077V48.4923C269.032 46.0113 266.191 44 262.687 44Z" fill="#D9E9FB"/>
<path d="M320.671 44H300.33C296.825 44 293.984 46.0113 293.984 48.4923V55.5077C293.984 57.9888 296.825 60 300.33 60H320.671C324.176 60 327.017 57.9888 327.017 55.5077V48.4923C327.017 46.0113 324.176 44 320.671 44Z" fill="#D9E9FB"/>
<path d="M378.655 44H358.314C354.81 44 351.969 46.0113 351.969 48.4923V55.5077C351.969 57.9888 354.81 60 358.314 60H378.655C382.16 60 385.001 57.9888 385.001 55.5077V48.4923C385.001 46.0113 382.16 44 378.655 44Z" fill="#D9E9FB"/>
<path d="M262.687 78H242.346C238.841 78 236 80.0113 236 82.4923V89.5077C236 91.9888 238.841 94 242.346 94H262.687C266.191 94 269.032 91.9888 269.032 89.5077V82.4923C269.032 80.0113 266.191 78 262.687 78Z" fill="#D9E9FB"/>
<path d="M320.671 78H300.33C296.825 78 293.984 80.0113 293.984 82.4923V89.5077C293.984 91.9888 296.825 94 300.33 94H320.671C324.176 94 327.017 91.9888 327.017 89.5077V82.4923C327.017 80.0113 324.176 78 320.671 78Z" fill="#D9E9FB"/>
<path d="M378.655 78H358.314C354.81 78 351.969 80.0113 351.969 82.4923V89.5077C351.969 91.9888 354.81 94 358.314 94H378.655C382.16 94 385.001 91.9888 385.001 89.5077V82.4923C385.001 80.0113 382.16 78 378.655 78Z" fill="#D9E9FB"/>
<path d="M262.687 113H242.346C238.841 113 236 115.011 236 117.492V124.508C236 126.989 238.841 129 242.346 129H262.687C266.191 129 269.032 126.989 269.032 124.508V117.492C269.032 115.011 266.191 113 262.687 113Z" fill="#D9E9FB"/>
<path d="M320.671 113H300.33C296.825 113 293.984 115.011 293.984 117.492V124.508C293.984 126.989 296.825 129 300.33 129H320.671C324.176 129 327.017 126.989 327.017 124.508V117.492C327.017 115.011 324.176 113 320.671 113Z" fill="#D9E9FB"/>
<path d="M378.655 113H358.314C354.81 113 351.969 115.011 351.969 117.492V124.508C351.969 126.989 354.81 129 358.314 129H378.655C382.16 129 385.001 126.989 385.001 124.508V117.492C385.001 115.011 382.16 113 378.655 113Z" fill="#D9E9FB"/>
<path d="M268.989 102.422H235.891V113.244H268.989V102.422Z" fill="white"/>
<path d="M307.735 102.422H274.637V113.244H307.735V102.422Z" fill="white"/>
<path d="M346.479 102.422H313.381V113.244H346.479V102.422Z" fill="white"/>
<path d="M385.224 102.422H352.125V113.244H385.224V102.422Z" fill="white"/>
<path d="M409.795 50.7949C419.146 41.4438 419.146 26.2827 409.795 16.9316C400.444 7.58054 385.283 7.58056 375.932 16.9316C366.581 26.2827 366.581 41.4438 375.932 50.7949C385.283 60.146 400.444 60.146 409.795 50.7949Z" fill="#1A75D4"/>
<path d="M392.87 53.1073C382.258 53.1073 373.625 44.474 373.625 33.8623C373.625 23.2507 382.258 14.6174 392.87 14.6174C403.481 14.6174 412.115 23.2507 412.115 33.8623C412.115 44.474 403.481 53.1073 392.87 53.1073ZM392.87 15.4559C382.72 15.4559 374.463 23.713 374.463 33.8623C374.463 44.0117 382.72 52.2688 392.87 52.2688C403.019 52.2688 411.276 44.0117 411.276 33.8623C411.277 23.713 403.019 15.4559 392.87 15.4559Z" fill="white"/>
<path d="M306.636 356.745H161.701V357.584H306.636V356.745Z" fill="#060101"/>
<path d="M250.083 215.175H1.40625L18.5666 267.928H267.244L250.083 215.175Z" fill="white"/>
<path d="M267.243 268.348H18.5658C18.3845 268.348 18.2232 268.231 18.167 268.058L1.00688 215.304C0.965402 215.177 0.987467 215.037 1.06623 214.929C1.14499 214.82 1.27113 214.756 1.40545 214.756H250.083C250.264 214.756 250.425 214.872 250.481 215.045L267.642 267.799C267.683 267.926 267.661 268.066 267.583 268.175C267.504 268.283 267.378 268.348 267.243 268.348ZM18.8704 267.509H266.666L249.778 215.594H1.98266L18.8704 267.509Z" fill="#060101"/>
<path d="M95.4321 329.152C95.2683 329.152 95.1128 329.055 95.0457 328.895L77.9509 288.13H36.0734L18.4427 328.899C18.3506 329.111 18.1025 329.209 17.8918 329.117C17.6789 329.025 17.5815 328.778 17.6732 328.566L35.413 287.545C35.4794 287.391 35.6308 287.292 35.7979 287.292H78.2298C78.399 287.292 78.5512 287.393 78.6162 287.549L95.8186 328.57C95.9082 328.783 95.808 329.029 95.5943 329.119C95.5415 329.141 95.4861 329.152 95.4321 329.152Z" fill="#060101"/>
<path d="M18.5645 267.929H267.242C267.242 267.929 321.723 266.122 326.905 287.711H78.2275L18.5645 267.929Z" fill="white"/>
<path d="M326.904 288.13H78.2271C78.1821 288.13 78.1379 288.123 78.0953 288.109L18.432 268.326C18.2368 268.262 18.1172 268.065 18.1499 267.862C18.1826 267.659 18.3578 267.509 18.5639 267.509H267.241C267.364 267.505 281.051 267.082 295.195 269.31C314.314 272.32 325.12 278.479 327.312 287.613C327.342 287.738 327.313 287.87 327.233 287.971C327.154 288.071 327.033 288.13 326.904 288.13ZM78.2947 287.292H326.361C320.566 266.822 267.791 268.33 267.255 268.347L21.16 268.348L78.2947 287.292Z" fill="#060101"/>
<path d="M306.637 329.152C306.473 329.152 306.318 329.055 306.251 328.895L289.156 288.13H247.278L229.648 328.899C229.556 329.111 229.307 329.209 229.097 329.117C228.884 329.025 228.787 328.778 228.878 328.566L246.618 287.545C246.684 287.391 246.836 287.292 247.003 287.292H289.435C289.604 287.292 289.756 287.393 289.821 287.549L307.024 328.57C307.113 328.783 307.013 329.029 306.799 329.119C306.746 329.141 306.691 329.152 306.637 329.152Z" fill="#060101"/>
<path d="M18.5645 267.928C18.5645 267.928 73.0459 266.121 78.2277 287.711H35.7956L18.5645 267.928Z" fill="white"/>
<path d="M78.7604 288.13H35.6059L17.6699 267.539L18.5513 267.509C18.6885 267.505 32.3755 267.082 46.5189 269.31C65.6381 272.32 76.4442 278.479 78.6364 287.613L78.7604 288.13ZM35.9874 287.292H77.6857C72.3085 268.296 26.4685 268.226 19.4704 268.329L35.9874 287.292Z" fill="#060101"/>
<path d="M78.2285 288.13H35.7258C35.494 288.13 35.3066 287.942 35.3066 287.711C35.3066 287.48 35.4942 287.292 35.7258 287.292H78.2285C78.4602 287.292 78.6476 287.48 78.6476 287.711C78.6478 287.943 78.4602 288.13 78.2285 288.13Z" fill="#060101"/>
<path d="M323.61 281.898H74.933C74.7013 281.898 74.5137 281.71 74.5137 281.478C74.5137 281.247 74.7013 281.059 74.933 281.059H323.61C323.842 281.059 324.029 281.247 324.029 281.478C324.029 281.71 323.842 281.898 323.61 281.898Z" fill="#060101"/>
<path d="M313.446 275.037H64.7687C64.537 275.037 64.3496 274.849 64.3496 274.618C64.3496 274.387 64.5372 274.199 64.7687 274.199H313.446C313.678 274.199 313.865 274.387 313.865 274.618C313.865 274.849 313.678 275.037 313.446 275.037Z" fill="#060101"/>
<path d="M263.639 257.265H14.9621C14.7304 257.265 14.543 257.077 14.543 256.846C14.543 256.614 14.7306 256.427 14.9621 256.427H263.639C263.871 256.427 264.058 256.614 264.058 256.846C264.058 257.077 263.871 257.265 263.639 257.265Z" fill="#060101"/>
<path d="M258.199 241.971H9.98552C9.7538 241.971 9.56641 241.783 9.56641 241.552C9.56641 241.32 9.75399 241.133 9.98552 241.133H258.199C258.431 241.133 258.618 241.32 258.618 241.552C258.618 241.783 258.431 241.971 258.199 241.971Z" fill="#060101"/>
<path d="M254.68 229.73H6.0031C5.77157 229.73 5.58398 229.542 5.58398 229.311C5.58398 229.079 5.77176 228.892 6.0031 228.892H254.68C254.912 228.892 255.099 229.08 255.099 229.311C255.099 229.542 254.912 229.73 254.68 229.73Z" fill="#060101"/>
</svg>
