<svg width="32" height="32" viewBox="0 0 32 32" fill="none" xmlns="http://www.w3.org/2000/svg">
<path d="M21.0829 9.33437C21.6759 9.11937 21.9709 9.04237 22.1329 9.01437C22.1342 9.0677 22.1336 9.10837 22.1309 9.13637C21.8989 11.5804 20.8799 17.5934 20.3559 20.3914C20.2339 21.0464 20.1399 21.3584 19.5059 20.9864C19.0899 20.7414 18.7139 20.4334 18.3099 20.1694C16.9849 19.3004 15.0889 18.0074 15.2449 18.0854C13.9409 17.2254 14.4869 16.6994 15.2149 15.9974C15.3319 15.8844 15.4549 15.7664 15.5749 15.6414C15.6289 15.5854 15.8919 15.3414 16.2619 14.9964C17.4499 13.8924 19.7459 11.7574 19.8039 11.5104C19.8139 11.4704 19.8219 11.3184 19.7329 11.2394C19.6429 11.1594 19.5099 11.1864 19.4149 11.2084C19.2796 11.239 17.1216 12.6654 12.9409 15.4874C12.3289 15.9074 11.7742 16.112 11.2769 16.1014L11.2819 16.1044C10.6269 15.8734 9.97389 15.6744 9.31789 15.4744C8.88318 15.3438 8.44982 15.2088 8.01789 15.0694L7.70989 14.9714C12.2369 12.9994 15.2519 11.7014 16.7629 11.0724C18.9569 10.1594 20.2589 9.63437 21.0829 9.33437ZM23.5059 7.40637C23.2931 7.23776 23.0449 7.11947 22.7799 7.06037C22.5799 7.01237 22.3899 6.99737 22.2469 7.00037C21.7699 7.00837 21.2589 7.14337 20.4009 7.45437C19.5259 7.77237 18.1819 8.31637 15.9949 9.22537C14.4516 9.86737 11.3842 11.1887 6.79289 13.1894C6.38889 13.3504 6.01989 13.5334 5.72789 13.7494C5.45789 13.9504 5.08089 14.3094 5.01189 14.8594C4.95989 15.2754 5.08089 15.6594 5.32689 15.9624C5.54089 16.2254 5.81489 16.3854 6.02389 16.4864C6.33389 16.6364 6.75189 16.7674 7.11889 16.8824C7.69189 17.0624 8.26289 17.2454 8.83789 17.4214C10.6159 17.9654 12.0799 18.4134 13.6899 19.4754C14.8709 20.2534 16.0299 21.0654 17.2129 21.8414C17.6449 22.1244 18.0479 22.4494 18.4929 22.7114C18.9809 22.9964 19.5989 23.2574 20.3529 23.1884C21.4909 23.0834 22.0829 22.0364 22.3229 20.7584C22.8439 17.9684 23.8799 11.8724 24.1229 9.32637C24.1451 9.03093 24.1327 8.73392 24.0859 8.44137C24.0267 8.0367 23.8201 7.66814 23.5059 7.40637Z" fill="#1A75D4"/>
</svg>
