<svg width="483" height="447" viewBox="0 0 483 447" fill="none" xmlns="http://www.w3.org/2000/svg">
<path d="M434.37 23.1177H22.2363V281.408H434.37V23.1177Z" fill="white"/>
<path d="M434.369 281.947H22.2358C21.9384 281.947 21.6973 281.706 21.6973 281.409V23.1176C21.6973 22.82 21.9384 22.5791 22.2358 22.5791H434.369C434.667 22.5791 434.908 22.82 434.908 23.1176V281.409C434.908 281.706 434.667 281.947 434.369 281.947ZM22.7743 280.87H433.831V23.6564H22.7743V280.87Z" fill="#1A75D4"/>
<path d="M216.28 40.1147H48.582V78.5516H216.28V40.1147Z" fill="#1A75D4"/>
<path d="M216.28 87.5398H48.582V216.266H216.28V87.5398Z" fill="white"/>
<path d="M216.279 216.804H48.5815C48.2841 216.804 48.043 216.563 48.043 216.266V87.54C48.043 87.2424 48.2841 87.0015 48.5815 87.0015H216.279C216.576 87.0015 216.818 87.2424 216.818 87.54V216.266C216.818 216.563 216.576 216.804 216.279 216.804ZM49.1202 215.727H215.741V88.0785H49.1202V215.727Z" fill="#060101"/>
<path d="M395.289 40.115H227.592V78.5519H395.289V40.115Z" fill="#1A75D4"/>
<path d="M395.287 87.5403H227.59V216.266H395.287V87.5403Z" fill="white"/>
<path d="M395.289 216.805H227.591C227.294 216.805 227.053 216.564 227.053 216.266V87.5402C227.053 87.2426 227.294 87.0017 227.591 87.0017H395.289C395.586 87.0017 395.827 87.2426 395.827 87.5402V216.266C395.827 216.564 395.586 216.805 395.289 216.805ZM228.13 215.727H394.75V88.0787H228.13V215.727Z" fill="#060101"/>
<path d="M216.281 234.031H0.820312V398.862H216.281V234.031Z" fill="white"/>
<path d="M216.28 399.4H0.819762C0.522381 399.4 0.28125 399.159 0.28125 398.861V234.031C0.28125 233.734 0.522381 233.493 0.819762 233.493H216.28C216.578 233.493 216.819 233.734 216.819 234.031V398.861C216.819 399.159 216.577 399.4 216.28 399.4ZM1.35827 398.323H215.742V234.57H1.35827V398.323Z" fill="#060101"/>
<path d="M124.29 355.847H134.508V296.416H124.29V355.847Z" fill="white"/>
<path d="M134.508 356.386H124.29C123.993 356.386 123.752 356.145 123.752 355.847V296.416C123.752 296.119 123.993 295.878 124.29 295.878H134.508C134.805 295.878 135.047 296.119 135.047 296.416V355.847C135.047 356.145 134.805 356.386 134.508 356.386ZM124.829 355.309H133.97V296.955H124.829V355.309Z" fill="#060101"/>
<path d="M120.737 361.595V357.557H138.059V361.595H141.679V366.127H117.117V361.595H120.737Z" fill="white"/>
<path d="M141.68 366.666H117.119C116.821 366.666 116.58 366.425 116.58 366.127V361.595C116.58 361.298 116.821 361.057 117.119 361.057H120.2V357.558C120.2 357.26 120.441 357.019 120.738 357.019H138.06C138.358 357.019 138.599 357.26 138.599 357.558V361.057H141.68C141.977 361.057 142.219 361.298 142.219 361.595V366.127C142.219 366.425 141.977 366.666 141.68 366.666ZM117.657 365.589H141.142V362.134H138.06C137.763 362.134 137.522 361.893 137.522 361.595V358.096H121.277V361.595C121.277 361.893 121.036 362.134 120.739 362.134H117.657V365.589H117.657Z" fill="#060101"/>
<path d="M81.7805 355.847H91.998L91.998 296.416H81.7805V355.847Z" fill="white"/>
<path d="M91.9963 356.386H81.7788C81.4814 356.386 81.2402 356.145 81.2402 355.847V296.416C81.2402 296.119 81.4814 295.878 81.7788 295.878H91.9963C92.2937 295.878 92.5348 296.119 92.5348 296.416V355.847C92.5348 356.145 92.2937 356.386 91.9963 356.386ZM82.3173 355.309H91.4578V296.955H82.3173V355.309Z" fill="#060101"/>
<path d="M78.2293 361.595V357.557H95.551V361.595H99.1709V366.127H74.6094V361.595H78.2293Z" fill="white"/>
<path d="M99.1703 366.665H74.6088C74.3114 366.665 74.0703 366.424 74.0703 366.127V361.595C74.0703 361.297 74.3114 361.056 74.6088 361.056H77.6902V357.557C77.6902 357.26 77.9314 357.019 78.2287 357.019H95.5504C95.8478 357.019 96.0889 357.26 96.0889 357.557V361.056H99.1703C99.4677 361.056 99.7088 361.297 99.7088 361.595V366.127C99.7088 366.424 99.4677 366.665 99.1703 366.665ZM75.1473 365.588H98.6318V362.133H95.5504C95.253 362.133 95.0119 361.893 95.0119 361.595V358.096H78.7675V361.595C78.7675 361.893 78.5264 362.133 78.229 362.133H75.1476L75.1473 365.588Z" fill="#060101"/>
<path d="M39.2688 355.847H49.4863L49.4863 296.416H39.2688L39.2688 355.847Z" fill="white"/>
<path d="M49.4865 356.386H39.269C38.9716 356.386 38.7305 356.145 38.7305 355.847V296.416C38.7305 296.119 38.9716 295.878 39.269 295.878H49.4865C49.7839 295.878 50.025 296.119 50.025 296.416V355.847C50.025 356.145 49.7839 356.386 49.4865 356.386ZM39.8075 355.309H48.9478V296.955H39.8075V355.309Z" fill="#060101"/>
<path d="M35.7176 361.595V357.557H53.0392V361.595H56.6592V366.127H32.0977V361.595H35.7176Z" fill="white"/>
<path d="M56.6586 366.666H32.0971C31.7997 366.666 31.5586 366.425 31.5586 366.127V361.595C31.5586 361.298 31.7997 361.057 32.0971 361.057H35.1785V357.558C35.1785 357.26 35.4197 357.019 35.717 357.019H53.0387C53.3361 357.019 53.5772 357.26 53.5772 357.558V361.057H56.6584C56.9557 361.057 57.1969 361.298 57.1969 361.595V366.127C57.1971 366.425 56.956 366.666 56.6586 366.666ZM32.6356 365.589H56.1201V362.134H53.0389C52.7416 362.134 52.5004 361.893 52.5004 361.595V358.096H36.2558V361.595C36.2558 361.893 36.0147 362.134 35.7173 362.134H32.6359L32.6356 365.589Z" fill="#060101"/>
<path d="M26.4734 292.514H147.303V285.463H26.4734V292.514Z" fill="white"/>
<path d="M147.304 293.053H26.4741C26.1767 293.053 25.9355 292.812 25.9355 292.514V285.463C25.9355 285.165 26.1767 284.924 26.4741 284.924H147.304C147.601 284.924 147.842 285.165 147.842 285.463V292.514C147.842 292.812 147.601 293.053 147.304 293.053ZM27.0126 291.976H146.765V286.002H27.0126V291.976Z" fill="#060101"/>
<path d="M26.4734 375.206H147.303V368.155H26.4734V375.206Z" fill="white"/>
<path d="M147.304 375.744H26.4741C26.1767 375.744 25.9355 375.503 25.9355 375.206V368.154C25.9355 367.857 26.1767 367.616 26.4741 367.616H147.304C147.601 367.616 147.842 367.857 147.842 368.154V375.206C147.842 375.503 147.601 375.744 147.304 375.744ZM27.0126 374.667H146.765V368.693H27.0126V374.667Z" fill="#060101"/>
<path d="M86.8893 257.688L147.304 281.408H26.4746L86.8893 257.688Z" fill="white"/>
<path d="M147.304 281.947H26.4742C26.2155 281.947 25.9932 281.763 25.945 281.509C25.8968 281.254 26.0362 281.002 26.2774 280.907L86.692 257.187C86.8182 257.138 86.9591 257.138 87.0855 257.187L147.5 280.907C147.741 281.002 147.881 281.254 147.833 281.509C147.785 281.763 147.563 281.947 147.304 281.947ZM29.3196 280.87H144.459L86.8891 258.267L29.3196 280.87Z" fill="#060101"/>
<path d="M313.706 176.98H159.254V316.819H313.706V176.98Z" fill="white"/>
<path d="M313.707 317.358H159.255C158.958 317.358 158.717 317.117 158.717 316.819V176.98C158.717 176.683 158.958 176.442 159.255 176.442H313.707C314.005 176.442 314.246 176.683 314.246 176.98V316.819C314.246 317.117 314.005 317.358 313.707 317.358ZM159.794 316.281H313.169V177.518H159.794V316.281Z" fill="#060101"/>
<path d="M236.483 296.847C263.937 296.847 286.192 274.591 286.192 247.138C286.192 219.684 263.937 197.428 236.483 197.428C209.029 197.428 186.773 219.684 186.773 247.138C186.773 274.591 209.029 296.847 236.483 296.847Z" fill="#1A75D4"/>
<path d="M236.483 286.757C214.637 286.757 196.863 268.984 196.863 247.137C196.863 225.291 214.637 207.517 236.483 207.517C258.33 207.517 276.104 225.291 276.104 247.137C276.104 268.984 258.33 286.757 236.483 286.757ZM236.483 208.595C215.231 208.595 197.941 225.885 197.941 247.137C197.941 268.39 215.231 285.68 236.483 285.68C257.736 285.68 275.026 268.39 275.026 247.137C275.027 225.885 257.736 208.595 236.483 208.595Z" fill="white"/>
<path d="M483 0H302V79H483V0Z" fill="#D9E9FB"/>
<path d="M464.834 18H382.834V37H464.834V18Z" fill="#1A75D4"/>
<path d="M373.834 18H319.834V37H373.834V18Z" fill="#1A75D4"/>
<path d="M464.834 45H382.834V63H464.834V45Z" fill="#1A75D4"/>
<path d="M373.834 45H319.834V63H373.834V45Z" fill="#1A75D4"/>
<path d="M410.49 249.069C410.183 246.921 407.174 246.683 406.533 248.756C402.179 262.833 393.652 294.068 390.741 330.887C390.106 338.913 389.619 346.707 389.273 354.14L410.973 355.856C411.799 348.46 412.543 340.687 413.178 332.661C416.089 295.843 412.577 263.655 410.49 249.069Z" fill="white"/>
<path d="M410.973 356.395C410.959 356.395 410.944 356.394 410.93 356.393L389.231 354.678C388.941 354.654 388.722 354.406 388.735 354.115C389.087 346.549 389.581 338.72 390.204 330.845C393.08 294.471 401.346 263.701 406.017 248.597C406.381 247.421 407.45 246.698 408.679 246.793C409.907 246.89 410.849 247.774 411.023 248.993C413.262 264.644 416.59 296.331 413.714 332.704C413.092 340.571 412.35 348.381 411.507 355.916C411.477 356.191 411.244 356.395 410.973 356.395ZM389.835 353.645L410.495 355.278C411.312 347.915 412.034 340.294 412.64 332.618C415.508 296.35 412.19 264.752 409.957 249.145C409.832 248.271 409.144 247.91 408.594 247.867C408.046 247.824 407.308 248.072 407.047 248.915C402.389 263.976 394.146 294.66 391.278 330.929C390.67 338.612 390.185 346.252 389.835 353.645Z" fill="#060101"/>
<path d="M400.266 353.743C400.251 353.743 400.237 353.742 400.222 353.741C399.926 353.718 399.705 353.458 399.728 353.162C402.316 320.682 404.912 287.851 407.444 255.582C407.468 255.285 407.731 255.069 408.023 255.087C408.32 255.11 408.541 255.369 408.518 255.666C405.986 287.936 403.39 320.767 400.802 353.247C400.779 353.529 400.544 353.743 400.266 353.743Z" fill="#060101"/>
<path d="M356.012 249.068C356.319 246.921 359.329 246.683 359.97 248.755C364.324 262.832 372.85 294.068 375.762 330.886C376.396 338.913 376.883 346.706 377.229 354.14L355.53 355.855C354.703 348.46 353.959 340.687 353.325 332.66C350.413 295.842 353.925 263.654 356.012 249.068Z" fill="white"/>
<path d="M355.53 356.394C355.259 356.394 355.026 356.19 354.996 355.916C354.153 348.38 353.411 340.57 352.789 332.703C349.913 296.33 353.24 264.643 355.48 248.992C355.654 247.774 356.596 246.89 357.824 246.792C359.052 246.699 360.122 247.42 360.486 248.596C365.157 263.7 373.423 294.47 376.3 330.844C376.922 338.717 377.417 346.546 377.768 354.115C377.782 354.405 377.563 354.653 377.273 354.677L355.573 356.392C355.559 356.394 355.545 356.394 355.53 356.394ZM358.031 247.862C357.989 247.862 357.949 247.863 357.909 247.866C357.359 247.91 356.672 248.271 356.546 249.145C354.313 264.752 350.995 296.349 353.863 332.618C354.47 340.293 355.191 347.914 356.009 355.278L376.668 353.644C376.318 346.249 375.833 338.609 375.226 330.929C372.358 294.659 364.115 263.976 359.456 248.915C359.215 248.132 358.563 247.862 358.031 247.862Z" fill="#060101"/>
<path d="M366.239 353.743C365.96 353.743 365.725 353.529 365.702 353.247C363.132 320.986 360.536 288.155 357.986 255.665C357.963 255.369 358.184 255.109 358.481 255.086C358.775 255.069 359.037 255.285 359.06 255.581C361.61 288.07 364.206 320.901 366.776 353.161C366.8 353.457 366.578 353.717 366.282 353.741C366.267 353.742 366.253 353.743 366.239 353.743Z" fill="#060101"/>
<path d="M385.49 235.173C384.954 232.787 381.55 232.787 381.013 235.173C377.371 251.383 370.562 287.253 370.562 328.897C370.562 337.976 370.708 346.78 370.979 355.166H395.523C395.795 346.78 395.941 337.976 395.941 328.897C395.941 287.253 389.133 251.383 385.49 235.173Z" fill="white"/>
<path d="M395.523 355.705H370.979C370.688 355.705 370.45 355.475 370.441 355.184C370.164 346.643 370.023 337.799 370.023 328.898C370.023 287.763 376.579 252.446 380.487 235.055C380.83 233.528 382.122 232.845 383.251 232.845C384.379 232.845 385.672 233.528 386.014 235.055V235.055C389.923 252.447 396.479 287.764 396.479 328.898C396.479 337.802 396.338 346.646 396.061 355.184C396.052 355.475 395.813 355.705 395.523 355.705ZM371.501 354.628H395.001C395.267 346.263 395.402 337.609 395.402 328.898C395.402 287.868 388.862 252.639 384.964 235.292C384.964 235.291 384.964 235.291 384.964 235.291C384.736 234.28 383.899 233.922 383.251 233.922C382.603 233.922 381.765 234.28 381.538 235.291C377.64 252.639 371.1 287.867 371.1 328.898C371.1 337.607 371.235 346.26 371.501 354.628Z" fill="#060101"/>
<path d="M383.251 353.676H383.251C382.954 353.676 382.713 353.434 382.713 353.137C382.734 316.562 382.734 279.427 382.713 242.765C382.713 242.467 382.954 242.226 383.251 242.226H383.251C383.549 242.226 383.79 242.467 383.79 242.764C383.811 279.427 383.811 316.563 383.79 353.138C383.79 353.435 383.549 353.676 383.251 353.676Z" fill="#060101"/>
<path d="M377.23 351.213H370.861H338.625L359.094 447H407.407L427.877 351.213H377.23Z" fill="#1A75D4"/>
<path d="M419.136 370.601H347.365C347.067 370.601 346.826 370.36 346.826 370.063C346.826 369.765 347.067 369.524 347.365 369.524H419.136C419.433 369.524 419.675 369.765 419.675 370.063C419.675 370.36 419.433 370.601 419.136 370.601Z" fill="#060101"/>
<path d="M360.35 380.273C361.648 378.835 362.958 377.314 363.511 375.457C364.064 373.601 363.65 371.314 362.043 370.232C360.905 369.466 359.383 369.417 358.289 368.589C356.8 367.46 356.608 365.202 357.307 363.468C358.005 361.735 359.384 360.384 360.662 359.021C364.136 355.32 367.172 351.053 368.548 346.168C369.924 341.282 369.446 335.697 366.426 331.618C363.405 327.54 357.596 325.446 352.944 327.476C349.51 328.975 347.261 332.264 345.198 335.392C339.997 343.279 334.775 351.203 330.829 359.786C326.883 368.37 324.234 377.708 324.474 387.152C324.561 390.588 325.059 394.103 326.708 397.118C328.358 400.134 331.331 402.586 334.755 402.887C340.292 403.373 342.414 397.563 345.933 394.481C351.01 390.032 355.825 385.283 360.35 380.273Z" fill="white"/>
<path d="M334.754 403.425C334.739 403.425 334.723 403.425 334.707 403.423C331.36 403.129 328.114 400.812 326.235 397.376C324.775 394.708 324.044 391.463 323.935 387.165C323.716 378.568 325.871 369.28 330.339 359.561C334.311 350.921 339.617 342.876 344.748 335.095C346.658 332.199 349.035 328.593 352.729 326.982C357.439 324.928 363.513 326.781 366.858 331.298C369.779 335.241 370.604 340.854 369.066 346.314C368.986 346.6 368.688 346.767 368.402 346.686C368.116 346.605 367.949 346.308 368.03 346.021C369.477 340.88 368.716 335.616 365.993 331.938C362.989 327.883 357.352 326.14 353.159 327.969C349.758 329.453 347.479 332.91 345.647 335.689C340.538 343.435 335.256 351.445 331.318 360.012C326.919 369.579 324.798 378.706 325.012 387.138C325.116 391.258 325.805 394.347 327.18 396.86C328.888 399.983 331.809 402.087 334.801 402.35C335.098 402.376 335.317 402.637 335.291 402.934C335.266 403.214 335.031 403.425 334.754 403.425Z" fill="#060101"/>
<path d="M299.744 384.795C295.279 377.962 294.897 367.906 300.781 362.249C303.188 359.935 306.769 357.766 306.365 354.452C306.207 353.158 305.417 352.034 304.562 351.05C301.501 347.53 297.386 345.102 294.017 341.875C290.649 338.649 287.937 334.042 288.968 329.493C289.856 325.575 293.463 322.644 297.386 321.778C301.309 320.912 305.449 321.844 309.091 323.54C320.025 328.631 326.832 340.212 329.128 352.054C331.425 363.896 329.863 376.115 328.033 388.037C327.622 390.714 327.16 393.489 325.626 395.721C319.397 404.791 303.547 390.615 299.744 384.795Z" fill="white"/>
<path d="M320.023 399.213C319.988 399.213 319.952 399.213 319.917 399.212C312.489 399.127 302.397 389.838 299.294 385.089C294.923 378.4 294.144 367.882 300.409 361.861C300.904 361.384 301.455 360.908 301.987 360.448C304.019 358.693 306.119 356.878 305.831 354.517C305.682 353.295 304.857 352.211 304.156 351.404C302.411 349.397 300.26 347.707 298.18 346.073C296.654 344.875 295.076 343.634 293.645 342.264C291.639 340.342 287.114 335.238 288.444 329.374C289.324 325.486 292.872 322.223 297.27 321.252C301.857 320.24 306.355 321.671 309.318 323.051C319.461 327.774 327.065 338.578 329.658 351.952C331.957 363.805 330.453 375.823 328.566 388.119C328.19 390.571 327.721 393.623 326.071 396.026C324.618 398.141 322.584 399.213 320.023 399.213ZM300.195 384.5C303.308 389.263 313.164 398.058 319.929 398.135C322.144 398.173 323.926 397.246 325.183 395.416C326.694 393.216 327.123 390.422 327.501 387.956C329.374 375.757 330.866 363.841 328.601 352.157C326.073 339.121 318.694 328.605 308.864 324.028C306.051 322.718 301.798 321.355 297.502 322.303C293.503 323.186 290.285 326.123 289.494 329.611C288.287 334.939 292.516 339.691 294.391 341.486C295.783 342.82 297.34 344.043 298.846 345.226C300.966 346.891 303.157 348.613 304.969 350.697C305.772 351.62 306.716 352.874 306.901 354.386C307.258 357.317 304.832 359.414 302.692 361.263C302.146 361.735 301.631 362.18 301.155 362.637C295.294 368.271 296.064 378.178 300.195 384.5Z" fill="#060101"/>
<path d="M316.312 391.591C316.183 391.591 316.053 391.545 315.95 391.452C309.949 385.997 310.036 376.736 310.622 371.701C310.883 369.456 311.285 367.19 311.674 364.998C312.475 360.487 313.303 355.822 312.904 351.237C312.329 344.637 308.239 337.498 301.531 336.624C301.237 336.585 301.029 336.315 301.067 336.02C301.106 335.726 301.378 335.517 301.671 335.556C308.942 336.504 313.365 344.115 313.977 351.143C314.389 355.871 313.548 360.606 312.735 365.186C312.349 367.362 311.949 369.613 311.692 371.825C311.13 376.656 311.03 385.524 316.674 390.654C316.895 390.855 316.911 391.195 316.711 391.415C316.604 391.532 316.458 391.591 316.312 391.591Z" fill="#060101"/>
<path d="M319.384 366.193C321.107 362.243 323.689 358.433 323.682 354.124C323.673 347.885 318.401 343.159 314.679 338.151C308.01 329.177 305.856 316.633 310.472 306.449C315.089 296.265 326.91 289.454 337.833 291.846C341.792 292.713 345.692 294.876 347.563 298.471C349.716 302.608 348.778 307.643 347.385 312.094C345.992 316.545 344.17 321.078 344.716 325.71C345.685 333.925 353.716 339.775 355.398 347.875C357.145 356.287 351.641 364.391 345.925 370.805C342.706 374.419 339.303 377.949 336.668 382.03C333.647 386.708 333.292 390.884 332.236 396.147C331.112 401.751 327.346 402.396 323.672 398.375C320.194 394.567 318.216 389.144 317.357 384.137C316.326 378.125 316.938 371.802 319.384 366.193Z" fill="white"/>
<path d="M328.195 401.491C326.634 401.491 324.923 400.541 323.276 398.738C319.034 394.096 317.415 387.654 316.827 384.228C315.754 377.972 316.487 371.491 318.891 365.978C319.322 364.992 319.81 364.002 320.283 363.046C321.692 360.194 323.149 357.244 323.144 354.125C323.137 349.419 319.921 345.496 316.811 341.701C315.948 340.648 315.056 339.559 314.248 338.473C307.123 328.886 305.449 316.229 309.983 306.227C314.846 295.498 327.13 288.949 337.949 291.32C342.611 292.341 346.29 294.857 348.042 298.223C350.393 302.742 349.201 308.096 347.9 312.255C347.699 312.896 347.49 313.54 347.279 314.184C346.059 317.927 344.798 321.798 345.252 325.647C345.744 329.823 348.091 333.329 350.575 337.04C352.801 340.367 355.104 343.807 355.926 347.766C357.832 356.944 351.361 365.516 346.328 371.164C345.782 371.777 345.231 372.387 344.679 372.998C342.028 375.934 339.286 378.969 337.121 382.323C334.649 386.151 333.996 389.676 333.24 393.759C333.09 394.566 332.937 395.395 332.765 396.253C332.202 399.059 330.928 400.872 329.178 401.358C328.859 401.447 328.53 401.491 328.195 401.491ZM333.394 291.911C324.278 291.911 314.984 297.803 310.964 306.672C306.589 316.323 308.217 328.553 315.112 337.83C315.905 338.896 316.789 339.975 317.644 341.018C320.874 344.958 324.214 349.033 324.221 354.123C324.227 357.495 322.713 360.559 321.248 363.523C320.781 364.468 320.299 365.445 319.879 366.408C317.558 371.731 316.851 377.995 317.889 384.045C318.457 387.356 320.015 393.572 324.071 398.011C325.76 399.861 327.516 400.703 328.891 400.32C330.229 399.948 331.23 398.428 331.709 396.041C331.88 395.189 332.033 394.365 332.181 393.562C332.958 389.367 333.629 385.745 336.217 381.738C338.429 378.311 341.201 375.243 343.88 372.275C344.43 371.666 344.98 371.058 345.525 370.447C350.403 364.972 356.679 356.687 354.872 347.984C354.093 344.231 351.849 340.88 349.68 337.639C347.235 333.985 344.706 330.206 344.183 325.773C343.701 321.688 345 317.703 346.256 313.85C346.465 313.209 346.673 312.57 346.873 311.933C348.112 307.972 349.257 302.889 347.087 298.72C345.483 295.638 342.068 293.324 337.719 292.372C336.296 292.06 334.847 291.911 333.394 291.911Z" fill="#060101"/>
<path d="M328.327 396.226C328.177 396.226 328.027 396.164 327.921 396.041C323.475 390.924 323.941 383.277 325.858 377.825C327.207 373.991 329.286 370.44 331.297 367.006C332.392 365.136 333.524 363.201 334.52 361.251C337.966 354.505 338.909 348.606 337.325 343.718C336.285 340.511 334.235 337.87 332.066 335.074C330.658 333.261 329.203 331.386 328.063 329.353C323.718 321.605 324.375 311.207 329.66 304.068C329.837 303.828 330.174 303.778 330.414 303.955C330.653 304.132 330.703 304.469 330.526 304.708C325.485 311.518 324.858 321.436 329.003 328.826C330.103 330.789 331.533 332.632 332.916 334.414C335.048 337.16 337.252 340 338.349 343.386C340.025 348.556 339.06 354.731 335.48 361.742C334.47 363.719 333.329 365.667 332.226 367.551C330.242 370.941 328.189 374.446 326.875 378.183C325.058 383.349 324.592 390.567 328.734 395.335C328.929 395.559 328.905 395.9 328.681 396.095C328.579 396.183 328.453 396.226 328.327 396.226Z" fill="#060101"/>
<path d="M364.687 394.379H295.863L300.552 447H359.998L364.687 394.379Z" fill="#E2EAFF"/>
</svg>
