<svg width="116" height="116" viewBox="0 0 116 116" fill="none" xmlns="http://www.w3.org/2000/svg">
<path d="M12.8349 67.1249C13.4488 67.1249 14.0455 67.0542 14.6275 66.9436L28.0821 90.0096C27.6609 90.4849 27.2799 91.0082 26.9502 91.5787C24.3006 96.1731 25.8823 102.067 30.4767 104.72C35.0752 107.372 40.9674 105.781 43.6181 101.197C43.9903 100.551 44.2597 99.8783 44.4693 99.1956H70.9982C71.2077 99.8783 71.4767 100.551 71.8489 101.197C74.5086 105.796 80.4072 107.365 84.9933 104.72C89.5847 102.067 91.1662 96.1731 88.5166 91.5725C88.1869 91.0033 87.8067 90.4814 87.3864 90.0072L100.839 66.9436C101.422 67.054 102.018 67.1249 102.632 67.1249C107.937 67.1249 112.467 62.8091 112.467 57.5038C112.467 52.1985 107.937 47.8827 102.632 47.8827C102.018 47.8827 101.421 47.9534 100.839 48.064L87.3855 24.9989C87.8072 24.5232 88.1869 23.9993 88.5166 23.4289C91.1662 18.8345 89.5845 12.9402 84.9933 10.2875H84.9901C80.3925 7.63784 74.5013 9.22277 71.8487 13.8108C71.4765 14.4562 71.2075 15.1289 70.998 15.812H44.4688C44.2593 15.1289 43.9903 14.4562 43.6181 13.8108C40.9655 9.21935 35.0711 7.63164 30.4767 10.2875H30.4737C25.8823 12.9402 24.3008 18.8345 26.9504 23.4351C27.2797 24.004 27.6598 24.5257 28.0806 25.0004L14.6275 48.064C14.0453 47.9536 13.4488 47.8827 12.8349 47.8827C7.52963 47.8827 3 52.1985 3 57.5038C3 62.8091 7.52963 67.1249 12.8349 67.1249ZM37.0221 28.0449L47.1369 45.5627C44.5907 47.8247 42.7283 50.8363 42.0229 54.2967H21.8654C21.4734 53.1982 20.8902 52.2032 20.1515 51.3294L33.722 28.065C34.809 28.2461 35.9178 28.2474 37.0221 28.0449ZM81.7454 28.0648L95.3159 51.3292C94.5772 52.203 93.994 53.198 93.6021 54.2965H73.4445C72.739 50.8361 70.8767 47.8245 68.3306 45.5625L78.4458 28.0434C79.5507 28.2461 80.6593 28.2457 81.7454 28.0648ZM78.4466 86.9659L68.3303 69.4449C70.8765 67.1829 72.739 64.1712 73.4443 60.7108H93.6019C93.9938 61.8094 94.577 62.8044 95.3157 63.6782L81.7437 86.9453C80.6578 86.7653 79.5499 86.7647 78.4466 86.9659ZM33.7237 86.9462L20.1515 63.6782C20.8902 62.8044 21.4734 61.8094 21.8654 60.7108H42.0229C42.7285 64.1712 44.5907 67.1829 47.1369 69.4449L37.021 86.965C35.9184 86.7643 34.8103 86.7653 33.7237 86.9462ZM42.5792 90.1686L52.6945 72.6492C54.2886 73.1816 55.9629 73.539 57.7336 73.539C59.5043 73.539 61.1786 73.1816 62.7727 72.6492L72.888 90.1682C72.2143 90.9586 71.6873 91.8372 71.3043 92.7813H44.1625C43.7791 91.8363 43.2529 90.9586 42.5792 90.1686ZM72.8884 24.8387L62.7727 42.3584C61.1786 41.826 59.5043 41.4686 57.7336 41.4686C55.9629 41.4686 54.2886 41.826 52.6945 42.3584L42.5786 24.8383C43.2527 24.0479 43.7802 23.1702 44.1629 22.2263H71.3041C71.6868 23.1702 72.2143 24.0483 72.8884 24.8387Z" fill="url(#paint0_linear_295_37)"/>
<defs>
<linearGradient id="paint0_linear_295_37" x1="3" y1="9" x2="99.3004" y2="117.672" gradientUnits="userSpaceOnUse">
<stop stop-color="#1A75D4"/>
<stop offset="1" stop-color="#2D218B"/>
</linearGradient>
</defs>
</svg>
