<svg width="32" height="32" viewBox="0 0 32 32" fill="none" xmlns="http://www.w3.org/2000/svg">
<path fill-rule="evenodd" clip-rule="evenodd" d="M0 16C0 7.16344 7.16344 0 16 0C24.8366 0 32 7.16344 32 16C32 24.8366 24.8366 32 16 32C7.16344 32 0 24.8366 0 16Z" fill="url(#paint0_linear_65_52453)"/>
<mask id="mask0_65_52453" style="mask-type:luminance" maskUnits="userSpaceOnUse" x="9" y="9" width="14" height="14">
<path d="M9 9H23V23H9V9Z" fill="white"/>
</mask>
<g mask="url(#mask0_65_52453)">
<path d="M20.025 9.65576H22.172L17.482 15.0298L23 22.3438H18.68L15.294 17.9088L11.424 22.3438H9.275L14.291 16.5938L9 9.65676H13.43L16.486 13.7098L20.025 9.65576ZM19.27 21.0558H20.46L12.78 10.8768H11.504L19.27 21.0558Z" fill="white"/>
</g>
<defs>
<linearGradient id="paint0_linear_65_52453" x1="0" y1="0" x2="32" y2="32" gradientUnits="userSpaceOnUse">
<stop stop-color="#1A75D4"/>
<stop offset="1" stop-color="#2D218B"/>
</linearGradient>
</defs>
</svg>
